<svg xmlns="http://www.w3.org/2000/svg" xmlns:xlink="http://www.w3.org/1999/xlink" xmlns:fi="http://pattern.flaticon.com/" x="0" y="0" width="1080" height="540" viewBox="0 0 1687.5 843.75"><rect x="0px" y="0px" width="100%" height="100%" opacity="1" fill="#ff5347"/><defs><g transform="matrix(0.060766989126655103 0.03590776712491844 -0.03590776712491844 0.060766989126655103 169.63603916755542 128.25126239959718)" id="L1_5"><path d="M498.682,435.326L297.917,234.56L63.357,0H45.026l-3.743,9.511c-9.879,25.104-14.1,50.78-12.205,74.249    c2.16,26.752,12.323,49.913,29.392,66.982L241.58,333.852l24.152-24.152l169.285,189.293c16.84,16.84,45.825,17.84,63.665,0    C516.236,481.439,516.236,452.879,498.682,435.326z"/><path d="M156.728,291.442L13.317,434.853c-17.552,17.552-17.552,46.113,0,63.665c16.674,16.674,45.519,18.146,63.665,0    l143.412-143.412L156.728,291.442z"/><path d="M490.253,85.249l-81.351,81.35l-21.223-21.222l81.351-81.351l-21.222-21.222l-81.35,81.35l-21.222-21.222l81.351-81.35    L405.366,0.361L299.256,106.471c-12.981,12.981-20.732,30.217-21.828,48.535c-0.277,4.641-1.329,9.206-3.074,13.548l68.929,68.929    c4.342-1.747,8.908-2.798,13.548-3.075c18.318-1.093,35.554-8.846,48.535-21.827l106.11-106.109L490.253,85.249z"/></g><g transform="matrix(0.11718704551458359 0 0 0.11718704551458359 263.99999955654323 62)" id="L1_6"><path d="M228.242,108.792l-48.176-12.909c-5.266-1.411-11.173-0.242-15.416,3.05c-3.227,2.502-5.236,6.047-5.673,9.917    l-5.337,19.919c-1.573,3.644-1.586,7.801,0.006,11.644c0.524,1.265,1.209,2.463,2.025,3.573    c-5.1,10.618-10.914,23.713-17.017,38.282c-0.007,0.017-0.014,0.033-0.021,0.049c-5.331,12.728-10.879,26.572-16.359,40.867    c-18.682,5.068-42.505,26.934-49.436,52.794L26.98,447.128c-4.413,16.473,6.424,33.74,24.157,38.491l46.947,12.58    c0,0,0.002,0,0.002,0.001l46.945,12.579c3.054,0.818,6.156,1.224,9.229,1.224c5.351,0,10.613-1.23,15.372-3.648    c7.852-3.99,13.38-10.678,15.565-18.832l6.308-23.543c0.001-0.003,0.003-0.007,0.003-0.01c0.001-0.003,0.001-0.006,0.002-0.009    l39.546-147.587c6.93-25.861-2.77-56.708-16.414-70.439c3.437-21.645,6.295-42.565,8.314-60.632    c0.006-0.052,0.013-0.104,0.018-0.157c1.01-9.053,1.807-17.38,2.362-24.725c4.329-2.121,7.763-6.016,9.107-11.027l5.832-21.763    C242.7,120.568,237.302,111.22,228.242,108.792z M165.878,484.344c-0.697,2.599-2.581,4.794-5.307,6.179    c-3.085,1.567-6.766,1.9-10.365,0.936l-46.944-12.578c-0.001,0-0.001-0.001-0.002-0.001L56.313,466.3    c-6.961-1.865-11.547-8.275-10.015-13.997l3.723-13.895l119.58,32.042L165.878,484.344z M174.778,451.132L55.197,419.09    L89.57,290.813l119.58,32.042L174.778,451.132z M213.276,303.255l-117.482-31.48c8.671-17.117,26.267-29.503,34.042-29.699    c4.061-0.102,7.658-2.652,9.099-6.451c5.197-13.704,10.479-27.05,15.591-39.444h47.256c-1.648,13.427-3.697,28.106-6.052,43.269    l-2.445-0.655c-5.337-1.43-10.818,1.736-12.247,7.071c-1.429,5.335,1.736,10.818,7.071,12.247l11.479,3.076    C206.103,266.396,214.278,284.986,213.276,303.255z M215.733,143.945c-0.079,0.001-0.157,0.01-0.236,0.013    c-0.074,0.002-0.146,0.007-0.219,0.012c-0.243,0.015-0.484,0.038-0.723,0.07c-0.083,0.011-0.165,0.021-0.247,0.034    c-0.239,0.038-0.475,0.086-0.71,0.141c-0.068,0.016-0.138,0.028-0.206,0.046c-0.287,0.074-0.57,0.159-0.848,0.258    c-0.09,0.032-0.177,0.071-0.267,0.105c-0.187,0.073-0.373,0.148-0.555,0.231c-0.113,0.052-0.223,0.108-0.333,0.164    c-0.157,0.079-0.311,0.161-0.464,0.248c-0.107,0.061-0.214,0.124-0.319,0.189c-0.159,0.098-0.313,0.203-0.466,0.31    c-0.088,0.062-0.177,0.121-0.263,0.186c-0.203,0.152-0.399,0.312-0.59,0.479c-0.03,0.026-0.062,0.049-0.091,0.076    c-0.225,0.202-0.439,0.415-0.646,0.636c-0.043,0.046-0.082,0.095-0.124,0.142c-0.157,0.175-0.309,0.355-0.454,0.542    c-0.059,0.076-0.115,0.155-0.172,0.233c-0.119,0.162-0.233,0.328-0.342,0.498c-0.061,0.095-0.121,0.192-0.179,0.289    c-0.094,0.158-0.182,0.321-0.268,0.485c-0.058,0.111-0.116,0.221-0.17,0.334c-0.075,0.16-0.143,0.324-0.21,0.488    c-0.05,0.121-0.104,0.24-0.148,0.363c-0.088,0.242-0.165,0.49-0.235,0.742c-0.083,0.299-0.15,0.604-0.206,0.913    c-0.012,0.065-0.03,0.13-0.041,0.195c-0.007,0.042-0.008,0.087-0.015,0.131c-0.044,0.302-0.079,0.604-0.096,0.905    c-0.364,6.547-0.996,14.238-1.859,22.779h-41.044c5.17-11.881,9.983-22.289,14.13-30.493c0.131-0.26,0.248-0.53,0.357-0.804    c0.019-0.049,0.045-0.097,0.064-0.146c0.02-0.054,0.034-0.111,0.054-0.165c0.11-0.304,0.206-0.61,0.286-0.919    c0.065-0.253,0.123-0.507,0.167-0.76c0.022-0.124,0.034-0.248,0.051-0.372c0.025-0.184,0.05-0.367,0.064-0.55    c0.01-0.117,0.014-0.234,0.019-0.351c0.009-0.196,0.014-0.391,0.011-0.585c-0.002-0.104-0.004-0.208-0.009-0.311    c-0.009-0.216-0.027-0.43-0.05-0.643c-0.009-0.083-0.017-0.166-0.028-0.249c-0.034-0.255-0.079-0.508-0.133-0.759    c-0.009-0.042-0.015-0.083-0.024-0.125c-0.069-0.302-0.151-0.6-0.247-0.893c-0.006-0.018-0.013-0.035-0.019-0.052    c-0.087-0.26-0.186-0.517-0.294-0.768c-0.04-0.092-0.084-0.182-0.126-0.273c-0.081-0.175-0.165-0.348-0.257-0.518    c-0.057-0.107-0.117-0.212-0.178-0.317c-0.088-0.151-0.181-0.299-0.277-0.446c-0.069-0.106-0.138-0.212-0.211-0.316    c-0.11-0.155-0.228-0.304-0.347-0.453c-0.066-0.083-0.128-0.169-0.198-0.25c-0.188-0.22-0.387-0.432-0.594-0.635    c-0.063-0.062-0.13-0.118-0.195-0.178c-0.162-0.151-0.328-0.298-0.501-0.439c-0.074-0.06-0.151-0.118-0.227-0.176    c-0.181-0.139-0.367-0.271-0.559-0.398c-0.069-0.045-0.137-0.091-0.208-0.135c-0.063-0.04-0.124-0.085-0.188-0.123l4.454-16.606    l42.409,11.363L215.733,143.945z"/><path d="M164.797,231.165l-0.234-0.062c-5.335-1.422-10.816,1.749-12.239,7.085c-1.424,5.337,1.748,10.816,7.085,12.239    l0.234,0.063c0.863,0.23,1.73,0.34,2.583,0.34c4.419,0,8.463-2.953,9.656-7.426C173.305,238.067,170.133,232.588,164.797,231.165z    "/><path d="M164.826,352.121c-5.036-8.723-13.167-14.961-22.896-17.568c-3.198-0.857-6.487-1.292-9.775-1.292    c-17.024,0-31.993,11.495-36.401,27.953c-2.607,9.728-1.27,19.889,3.766,28.611c5.036,8.722,13.167,14.961,22.895,17.567    c3.198,0.857,6.487,1.291,9.775,1.291c17.023,0,31.993-11.494,36.402-27.953C171.2,371.003,169.862,360.842,164.826,352.121z     M149.275,375.555c-2.071,7.73-9.096,13.128-17.084,13.128c-1.541,0-3.088-0.205-4.6-0.61c-4.568-1.224-8.386-4.154-10.75-8.249    c-2.365-4.096-2.993-8.866-1.768-13.435c2.07-7.73,9.095-13.129,17.083-13.129c1.541,0,3.088,0.205,4.6,0.61    c4.568,1.224,8.386,4.154,10.751,8.25C149.87,366.216,150.498,370.987,149.275,375.555z"/><path d="M485.012,447.127l-45.859-171.149c-6.93-25.862-30.753-47.728-49.435-52.794c-5.48-14.295-11.028-28.14-16.359-40.867    c-0.007-0.017-0.014-0.033-0.021-0.05c-6.103-14.569-11.917-27.664-17.018-38.281c0.815-1.109,1.5-2.308,2.024-3.572    c1.593-3.843,1.579-8.001,0.007-11.645l-5.338-19.919c-0.437-3.869-2.445-7.414-5.672-9.916c-4.243-3.293-10.15-4.462-15.417-3.05    l-48.177,12.908c-4.382,1.175-8.048,3.992-10.322,7.932c-2.275,3.941-2.882,8.525-1.707,12.907l5.83,21.764    c1.344,5.011,4.778,8.906,9.108,11.026c0.554,7.341,1.35,15.663,2.359,24.711c0.006,0.064,0.015,0.128,0.022,0.192    c2.018,18.061,4.875,38.972,8.311,60.61c-13.644,13.73-23.343,44.579-16.414,70.439l45.859,171.148    c2.186,8.155,7.714,14.843,15.566,18.832c4.759,2.419,10.021,3.648,15.372,3.648c3.072,0,6.175-0.405,9.228-1.224l93.895-25.159    c8.372-2.243,15.508-7.357,20.093-14.399C485.754,463.837,487.197,455.282,485.012,447.127z M297.769,144.084    c-0.149-0.024-0.3-0.044-0.451-0.062c-0.172-0.021-0.344-0.037-0.518-0.049c-0.118-0.008-0.236-0.016-0.356-0.02    c-0.063-0.002-0.124-0.009-0.186-0.01l-4.449-16.608l42.409-11.36l4.451,16.606c-0.064,0.039-0.125,0.083-0.188,0.123    c-0.071,0.045-0.141,0.091-0.211,0.137c-0.19,0.126-0.375,0.258-0.555,0.395c-0.077,0.06-0.155,0.118-0.231,0.179    c-0.17,0.139-0.334,0.284-0.494,0.433c-0.066,0.062-0.136,0.121-0.201,0.184c-0.205,0.202-0.403,0.413-0.59,0.631    c-0.073,0.085-0.139,0.176-0.209,0.264c-0.115,0.144-0.229,0.289-0.336,0.438c-0.076,0.106-0.146,0.215-0.218,0.325    c-0.094,0.143-0.185,0.287-0.271,0.435c-0.063,0.107-0.124,0.216-0.183,0.326c-0.09,0.167-0.172,0.336-0.252,0.507    c-0.044,0.094-0.09,0.187-0.13,0.282c-0.105,0.246-0.201,0.497-0.287,0.751c-0.008,0.023-0.018,0.046-0.025,0.069    c-0.096,0.292-0.177,0.589-0.246,0.889c-0.01,0.046-0.017,0.092-0.026,0.138c-0.053,0.246-0.098,0.495-0.132,0.746    c-0.011,0.085-0.018,0.171-0.028,0.256c-0.023,0.211-0.04,0.423-0.05,0.637c-0.005,0.104-0.008,0.209-0.01,0.314    c-0.002,0.193,0.003,0.386,0.012,0.581c0.005,0.119,0.01,0.236,0.018,0.355c0.015,0.183,0.04,0.365,0.065,0.548    c0.017,0.124,0.029,0.249,0.052,0.372c0.047,0.266,0.105,0.531,0.175,0.796c0.072,0.278,0.162,0.554,0.26,0.828    c0.026,0.073,0.046,0.15,0.073,0.223c0.012,0.031,0.028,0.061,0.04,0.091c0.116,0.296,0.243,0.585,0.385,0.864    c4.147,8.203,8.958,18.607,14.127,30.485h-41.043c-0.863-8.542-1.496-16.233-1.859-22.779c-0.017-0.303-0.052-0.608-0.097-0.913    c-0.006-0.041-0.008-0.082-0.014-0.122c-0.011-0.066-0.029-0.132-0.042-0.198c-0.053-0.294-0.114-0.586-0.192-0.871    c-0.073-0.268-0.156-0.53-0.25-0.787c-0.041-0.114-0.091-0.224-0.137-0.337c-0.071-0.175-0.144-0.35-0.224-0.519    c-0.05-0.105-0.105-0.208-0.159-0.312c-0.09-0.173-0.183-0.344-0.281-0.511c-0.055-0.092-0.111-0.182-0.168-0.272    c-0.112-0.175-0.23-0.346-0.353-0.513c-0.056-0.076-0.109-0.153-0.167-0.227c-0.142-0.183-0.291-0.359-0.444-0.531    c-0.048-0.053-0.092-0.108-0.14-0.16c-0.201-0.215-0.41-0.422-0.628-0.618c-0.075-0.068-0.156-0.129-0.233-0.195    c-0.142-0.12-0.283-0.239-0.432-0.35c-0.124-0.095-0.254-0.182-0.383-0.271c-0.105-0.071-0.209-0.142-0.316-0.209    c-0.15-0.095-0.304-0.186-0.46-0.273c-0.086-0.048-0.173-0.093-0.26-0.139c-0.175-0.091-0.351-0.18-0.531-0.261    c-0.055-0.024-0.11-0.045-0.165-0.069c-0.605-0.258-1.238-0.456-1.895-0.59C298.011,144.131,297.891,144.105,297.769,144.084z     M312.407,261.189l11.478-3.075c5.335-1.429,8.501-6.913,7.071-12.247c-1.43-5.334-6.915-8.502-12.247-7.071l-2.445,0.655    c-2.354-15.164-4.403-29.844-6.052-43.269h47.257c5.112,12.394,10.395,25.74,15.591,39.444c1.441,3.798,5.037,6.348,9.099,6.45    c7.774,0.196,25.369,12.582,34.04,29.7l-117.482,31.48C297.715,284.985,305.891,266.395,312.407,261.189z M337.214,451.133    l-34.372-128.278l119.58-32.042l34.372,128.278L337.214,451.133z M464.188,460.307c-1.889,2.9-4.91,5.029-8.508,5.993    l-93.895,25.159c-3.599,0.964-7.278,0.632-10.364-0.936c-2.726-1.385-4.61-3.579-5.307-6.179l-3.723-13.894l119.58-32.042    l3.723,13.895C466.39,454.903,465.856,457.746,464.188,460.307z"/><path d="M359.665,238.178c-1.429-5.334-6.909-8.503-12.246-7.073l-0.233,0.063c-5.335,1.429-8.501,6.912-7.072,12.246    c1.196,4.469,5.236,7.416,9.653,7.416c0.855,0,1.727-0.111,2.593-0.343l0.233-0.063    C357.928,248.995,361.094,243.512,359.665,238.178z"/><path d="M416.238,361.214c-4.409-16.459-19.379-27.954-36.402-27.954c-3.288,0-6.577,0.435-9.775,1.292    c-9.729,2.606-17.859,8.845-22.896,17.568c-5.035,8.722-6.373,18.883-3.767,28.612c4.41,16.456,19.38,27.951,36.402,27.952    c0.001,0,0.001,0,0.002,0c3.287,0,6.576-0.435,9.774-1.291c9.728-2.606,17.859-8.845,22.895-17.567    C417.507,381.103,418.845,370.942,416.238,361.214z M395.152,379.825c-2.365,4.096-6.183,7.025-10.75,8.249    c-1.511,0.405-3.059,0.61-4.599,0.61c0,0,0,0-0.001,0c-7.987,0-15.014-5.399-17.085-13.128c-1.224-4.568-0.596-9.339,1.768-13.435    c2.365-4.096,6.183-7.025,10.751-8.25c1.511-0.405,3.059-0.61,4.6-0.61c7.987,0,15.013,5.399,17.084,13.13    C398.144,370.958,397.516,375.729,395.152,379.825z"/><path d="M255.996,0c-5.523,0-10,4.477-10,10v26.764c0,5.523,4.477,10,10,10c5.522,0,10-4.477,10-10V10    C265.996,4.477,261.519,0,255.996,0z"/><path d="M222.552,50.193l-13.596-23.178c-2.794-4.764-8.922-6.361-13.685-3.566c-4.764,2.794-6.36,8.921-3.566,13.685    l13.596,23.178c1.862,3.174,5.203,4.942,8.635,4.942c1.719,0,3.461-0.443,5.05-1.376C223.75,61.083,225.346,54.956,222.552,50.193    z"/><path d="M316.723,23.449c-4.765-2.795-10.892-1.197-13.686,3.566l-13.596,23.178c-2.794,4.764-1.198,10.891,3.566,13.685    c1.59,0.933,3.331,1.376,5.05,1.376c3.432,0,6.773-1.768,8.636-4.942l13.596-23.178C323.083,32.37,321.486,26.243,316.723,23.449z    "/></g><g transform="matrix(0.11718498170375824 0 0 0.11718498170375824 26 310.9999997139039)" id="L1_8"><path d="M85.333,64.005H42.667c-11.782,0-21.333-9.551-21.333-21.333s9.551-21.333,21.333-21.333h42.667V0.005H42.667    C19.103,0.005,0,19.108,0,42.672s19.103,42.667,42.667,42.667h42.667c5.89,0,10.666,4.775,10.666,10.666    s-4.776,10.667-10.667,10.667c-17.673,0-32,14.327-32,32v21.333h21.333v-21.333c0-5.891,4.776-10.667,10.667-10.667    c17.673,0,32-14.327,32-32C117.333,78.332,103.006,64.005,85.333,64.005z"/><path d="M469.333,0.005h-42.667v21.333h42.667c11.782,0,21.333,9.551,21.333,21.333c0,11.782-9.551,21.333-21.333,21.333h-42.667    c-17.673,0-32,14.327-32,32c0,17.673,14.328,32.001,32.001,32.001c5.891,0,10.667,4.776,10.667,10.667v21.333h21.333v-21.333    c0-17.673-14.327-32-32-32c-5.891,0-10.667-4.776-10.667-10.667s4.776-10.667,10.667-10.667h42.667    c23.564,0,42.667-19.102,42.667-42.667S492.898,0.005,469.333,0.005z"/><path d="M320,0.005h-32v21.333h32c11.782,0,21.333,9.551,21.333,21.333c0,11.782-9.551,21.333-21.333,21.333h-32    c-17.673,0-32,14.327-32,32v42.667h21.333V96.005c0-5.891,4.776-10.667,10.667-10.667h32c23.564,0,42.667-19.102,42.667-42.667    S343.564,0.005,320,0.005z"/><path d="M192,64.006h-21.333c-11.782,0-21.333-9.551-21.333-21.333c0-11.782,9.551-21.333,21.333-21.333H192V0.005h-21.333    C147.103,0.005,128,19.108,128,42.672s19.103,42.667,42.667,42.667H192c5.891,0,10.667,4.776,10.667,10.667v32H224v-32    C224,78.333,209.673,64.006,192,64.006z"/><path d="M117.333,362.672c-4.165-0.04-7.642-3.188-8.096-7.328c-1.365-11.761-2.109-23.585-2.229-35.424l-21.333,0.171    c0.128,12.591,0.922,25.167,2.378,37.674c1.675,14.916,14.27,26.204,29.28,26.24h32v-21.333H117.333z"/><path d="M94.602,252.667c-4.628,14.689-7.423,29.894-8.32,45.269l21.333,1.472c0.766-13.602,3.202-27.057,7.254-40.064    L94.602,252.667z"/><path d="M501.333,320.005h0.011c5.891,0,10.667-4.776,10.667-10.667V262.32c0-0.83-0.096-1.657-0.288-2.464l-9.877-41.515    c-0.201-0.848-0.506-1.669-0.907-2.443l-20.267-39.029c-0.563-1.086-1.309-2.068-2.205-2.901    c-4.313-4.013-11.063-3.769-15.075,0.544l-50.183,53.953L377.343,237c-22.4-21.243-63.642-29.665-107.477-19.321    c-35.317,8.341-64.971,27.659-79.413,51.552c-8.4,12.977-11.099,28.836-7.467,43.861c8.075,30.784,43.093,49.653,86.187,49.653    c12.449-0.043,24.851-1.525,36.96-4.416c32.176-6.196,60.671-24.689,79.435-51.552c1.521-2.35,2.849-4.796,3.992-7.313l0.093,0.39    l22.91-5.486c8.783,15.974,15.368,33.081,19.544,50.862c0.725,3.045,1.092,6.165,1.093,9.295    c0.003,22.168-17.965,40.141-40.133,40.145H117.333c-20.431-0.035-37.583-15.397-39.861-35.701    c-4.747-41.419-6.549-116.747,35.051-155.659c26.133-24.459,66.581-31.904,120.256-22.144    c28.55,4.906,56.354,13.452,82.731,25.429l9.024-19.328c-28.032-12.755-57.586-21.861-87.936-27.093    c-60.715-11.019-107.36-1.76-138.667,27.563C51.99,230.757,49.91,305.946,56.256,361.413c1.45,12.824,6.784,24.35,14.739,33.475    c-15.943,1.822-28.328,15.353-28.328,31.784c0,3.741,0.648,7.33,1.828,10.667h-4.496l-18.666-24.885v-49.781H0v53.333    c0,2.308,0.749,4.554,2.133,6.4L21.33,448c0,0.705,0.071,1.421,0.217,2.138c0.117,0.576,13.333,61.867,95.787,61.867h277.333    c82.453,0,95.669-61.291,95.787-61.867c0.143-0.703,0.216-1.418,0.215-2.135c0,0,0,0,0-0.001l19.198-25.597    c1.385-1.846,2.133-4.092,2.133-6.4v-53.333h-21.333v49.781l-18.666,24.885h-4.496c1.18-3.337,1.828-6.925,1.828-10.667    c0-16.916-13.129-30.758-29.752-31.913c12.451-14.447,18.034-34.454,13.272-54.423c-3.727-15.906-9.202-31.325-16.295-45.987    l60.733,24.867C498.574,319.74,499.947,320.007,501.333,320.005z M367.211,295.781c-15.878,21.805-39.464,36.744-65.963,41.781    c-45.803,10.859-90.528-2.816-97.611-29.867c-2.045-9.469-0.188-19.363,5.152-27.445c15.878-21.805,39.464-36.744,65.963-41.781    c10.296-2.45,20.841-3.699,31.424-3.723l-0.043-0.021c33.248,0,60.8,12.885,66.229,33.611    C374.408,277.805,372.551,287.699,367.211,295.781z M394.601,276.74c0.047-4.611-0.463-9.249-1.566-13.811    c-0.647-2.467-1.467-4.858-2.45-7.168l20.328-4.875l4.938,20.758L394.601,276.74z M464,458.672c-7.968,13.269-26.816,32-69.333,32    h-277.28c-42.549,0-61.387-18.763-69.387-32h26.667h362.667H464z M437.334,416.005c5.89,0,10.666,4.776,10.666,10.667    s-4.776,10.667-10.667,10.667H74.667c-5.891,0-10.667-4.776-10.667-10.667s4.776-10.667,10.667-10.667h42.667h275.733l0.053,0.064    c0.708-0.001,1.415-0.039,2.122-0.064H437.334z M490.667,293.445l-52.91-21.667l-7.27-30.548l38.217-41.097l12.683,24.437    l2.164,9.095l-31.129,7.407l4.938,20.754l31.128-7.407l2.179,9.159V293.445z"/><rect x="170px" y="362px" width="21px" height="21px"/><rect x="277px" y="256px" width="21px" height="21px"/><rect x="320px" y="256px" width="21px" height="21px"/><rect x="341px" y="362px" width="21px" height="21px"/><rect x="384px" y="362px" width="21px" height="21px"/></g><g transform="matrix(0.11977601796388626 0 0 0.11977601796388626 202.0000003655274 259)" id="L1_9"><path d="M184.573,351.806c0.943,0.415,2.024,0.764,3.219,1.04c63.216,14.737,94.6,24.215,110.126,30.1    c9.218,3.495,20.842,3.284,28.133-3.349l47.129-42.854c7.291-6.633,7.169-17.371,1.528-25.459    c-19.078-27.353-23.183-65.386-23.817-87.472c-0.049-1.569-0.276-2.894-0.585-4.105c4.235-43.984-7.877-92.162-37.375-134.073    C254.081,1.993,148.36-25.002,76.804,25.346S-5.042,184.317,53.817,267.968C87.242,315.463,135.769,344.629,184.573,351.806z     M189.312,40.018c76.929,25.288,106.899,91.511,123.668,165.571c5.788,25.572-33.912,34.278-39.7,8.722    c-13.445-59.379-33.766-114.995-96.47-135.609C151.937,70.525,164.349,31.817,189.312,40.018z" fill="#010002"/><path d="M433.072,359.163c-9.746,0.081-19.005,2.829-27.036,7.917l-16.298-16.038l-52.868,53.754    l15.631,15.387c-5.877,8.592-9.047,18.769-8.966,29.344c0.236,28.58,23.679,51.641,52.259,51.405    c24.012-0.195,42.195-20.899,47.731-43.366c22.898-5.519,42-22.467,41.797-46.999    C485.095,381.988,461.652,358.927,433.072,359.163z M433.649,436.043l-15.298-3.699l2.024,16.972    c-0.114,13.591-11.234,24.735-24.784,24.841c-13.819,0.114-25.15-11.039-25.264-24.849c-0.065-7.43,3.3-14.493,9.226-19.403    l11.421-9.454l-16.233-15.965l15.314-15.582l15.688,15.436l9.372-10.218c4.796-5.227,11.258-8.137,18.184-8.194    c13.81-0.114,25.15,11.039,25.264,24.849C458.669,424.606,447.524,435.929,433.649,436.043z" fill="#010002"/></g><g transform="matrix(0.13015183806419373 0 0 0.13015183806419373 315 171.99999939626832)" id="L1_10"><path d="M427.234,207.848c-19.791-18.087-47.415-33.195-80.157-43.896c0.942-2.773,1.213-5.764,0.713-8.75   c-0.452-2.685-1.498-5.203-3.042-7.392c2.495-3.91,3.358-8.7,2.26-13.367c-0.537-2.299-1.531-4.441-2.906-6.313   c2.794-4.189,3.653-9.51,2.099-14.483c-0.726-2.317-1.916-4.413-3.483-6.182c2.511-4.301,2.984-9.596,1.042-14.455   c-2.42-6.033-8.084-9.911-14.241-10.339c-0.285-1.132-0.694-2.235-1.226-3.292c-1.931-3.871-5.255-6.754-9.359-8.121   c-3.286-1.094-6.758-1.109-9.987-0.082c-0.029-0.047-0.057-0.095-0.086-0.142c-2.222-3.619-5.722-6.155-9.854-7.14   c-3.524-0.841-7.147-0.467-10.374,1.036c-2.512-3.236-6.117-5.332-10.183-5.914c-3.717-0.533-7.424,0.261-10.566,2.238   c-5.639-5.708-14.739-6.188-20.953-1.136c-2.96-2.352-6.623-3.54-10.44-3.356c-4.02,0.191-7.735,1.882-10.501,4.764   c-6.81-4.145-15.81-2.528-20.702,3.946c-3.188-1.439-6.739-1.782-10.193-0.96c-4.13,0.984-7.632,3.518-9.861,7.137   c-0.07,0.113-0.138,0.227-0.204,0.341c-7.4-2.235-15.58,1.112-19.143,8.239c-0.716,1.421-1.211,2.911-1.48,4.438   c-5.65,0.848-10.604,4.603-12.846,10.202c-2.02,5.04-1.396,10.605,1.387,14.993c-1.409,1.688-2.482,3.647-3.148,5.786   c-1.553,4.971-0.694,10.291,2.1,14.48c-1.374,1.871-2.368,4.011-2.904,6.307c-1.099,4.671-0.235,9.463,2.258,13.373   c-1.044,1.478-1.838,3.111-2.395,4.831c-42.356,8.914-78.71,24.434-105.292,44.982C15.064,221.653,0,247.847,0,275.37   c0,35.027,24.376,67.722,68.638,92.062c43.318,23.82,100.801,36.938,161.862,36.938s118.544-13.119,161.862-36.938   C436.624,343.092,461,310.397,461,275.37C461,251.385,449.324,228.036,427.234,207.848z M158.976,205.725   c-1.584-1.836-2.391-4.165-2.272-6.555c0.119-2.369,1.139-4.588,2.873-6.248c1.99-1.904,2.065-5.059,0.168-7.056   c-1.756-1.848-2.61-4.348-2.342-6.87c0.224-2.16,1.259-4.145,2.913-5.587c1.061-0.925,1.683-2.254,1.713-3.661   c0.03-1.407-0.534-2.762-1.554-3.731c-1.822-1.732-2.723-4.149-2.467-6.658c0.016-0.149,0.028-0.303,0.063-0.499   c0.331-1.966,1.384-3.736,2.966-4.983c1.177-0.929,1.875-2.336,1.903-3.835c0.027-1.499-0.619-2.931-1.761-3.901   c-2.156-1.833-3.095-4.674-2.449-7.422c0.412-1.761,1.46-3.307,2.952-4.354c1.31-0.918,2.102-2.409,2.129-4.009   c0.027-1.6-0.713-3.116-1.991-4.079c-2.355-1.774-3.351-4.847-2.475-7.651c0.522-1.676,1.665-3.086,3.218-3.97   c1.473-0.838,2.421-2.364,2.52-4.056c0.098-1.691-0.667-3.318-2.033-4.32c-2.406-1.767-3.314-4.929-2.207-7.691   c1.194-2.983,4.341-4.639,7.478-3.938c1.658,0.37,3.392-0.127,4.602-1.32c1.209-1.194,1.73-2.92,1.382-4.583   c-0.203-0.968-0.278-2.451,0.518-4.03c1.523-3.046,5.245-4.286,8.273-2.773c0.511,0.258,0.988,0.59,1.418,0.986   c1.414,1.301,3.447,1.678,5.233,0.968c1.786-0.709,3.006-2.379,3.141-4.296c0.069-0.982,0.358-1.894,0.859-2.708   c0.829-1.345,2.129-2.287,3.663-2.652c1.532-0.363,3.115-0.11,4.462,0.72c0.555,0.341,1.054,0.786,1.484,1.324   c1.23,1.537,3.25,2.21,5.154,1.718c1.907-0.493,3.347-2.058,3.679-3.999c0.157-0.919,0.513-1.752,1.061-2.481   c1.89-2.519,5.481-3.028,8.007-1.137c0.594,0.444,1.093,1,1.483,1.653c1.026,1.713,2.972,2.656,4.952,2.388   c1.979-0.264,3.612-1.68,4.152-3.603c0.239-0.849,0.652-1.6,1.239-2.243c1.006-1.109,2.386-1.759,3.884-1.83   c1.5-0.07,2.938,0.446,4.042,1.451c0.595,0.544,1.065,1.206,1.396,1.968c0.793,1.829,2.596,3.01,4.586,3.01   c0.014,0,0.028,0,0.042,0c2.007-0.017,3.81-1.232,4.578-3.086c0.33-0.796,0.798-1.473,1.392-2.012   c2.294-2.084,5.855-1.915,7.941,0.383c0.562,0.618,0.971,1.348,1.215,2.17c0.57,1.917,2.228,3.31,4.214,3.542   c1.991,0.237,3.92-0.743,4.916-2.478c0.376-0.657,0.886-1.228,1.515-1.7c1.219-0.915,2.724-1.299,4.231-1.083   c1.512,0.216,2.849,1.009,3.77,2.238c0.521,0.692,0.867,1.493,1.029,2.379c0.354,1.928,1.802,3.472,3.704,3.947   c1.901,0.475,3.906-0.203,5.127-1.737c0.466-0.585,0.985-1.056,1.559-1.406c1.344-0.828,2.931-1.081,4.465-0.716   c1.532,0.365,2.829,1.305,3.656,2.652c0.488,0.793,0.776,1.667,0.854,2.599c0.162,1.908,1.399,3.557,3.187,4.245   c1.789,0.688,3.811,0.294,5.21-1.014c0.449-0.419,0.934-0.759,1.462-1.021c1.476-0.738,3.152-0.859,4.72-0.337   c1.565,0.521,2.833,1.621,3.576,3.109c0.562,1.119,0.765,2.371,0.587,3.621c-0.243,1.706,0.411,3.417,1.729,4.528   c1.317,1.111,3.116,1.462,4.755,0.936c3.247-1.045,6.784,0.62,8.054,3.786c1.073,2.685,0.276,5.711-1.982,7.53   c-1.308,1.053-2,2.692-1.842,4.364c0.158,1.671,1.144,3.152,2.625,3.942c1.63,0.87,2.832,2.316,3.38,4.07   c0.875,2.798-0.12,5.871-2.476,7.645c-1.278,0.963-2.018,2.479-1.991,4.079c0.027,1.6,0.819,3.09,2.128,4.009   c1.492,1.046,2.541,2.592,2.954,4.361c0.645,2.742-0.294,5.583-2.45,7.415c-1.142,0.971-1.789,2.403-1.761,3.901   c0.027,1.499,0.726,2.906,1.903,3.835c1.582,1.247,2.634,3.017,2.965,4.98c0.404,2.412-0.303,4.841-1.939,6.664   c-0.029,0.032-0.058,0.065-0.086,0.098c-0.123,0.145-0.258,0.282-0.397,0.416c-1.012,0.972-1.568,2.324-1.535,3.726   s0.655,2.726,1.712,3.648c1.654,1.443,2.689,3.427,2.914,5.6c0.267,2.51-0.587,5.01-2.343,6.857   c-1.897,1.997-1.822,5.151,0.168,7.056c1.734,1.66,2.755,3.879,2.874,6.246c0.118,2.392-0.688,4.72-2.273,6.557   c-1.686,1.956-1.606,4.874,0.185,6.733c1.8,1.87,2.792,4.325,2.792,6.912c0,4.142-2.609,7.908-6.493,9.372   c-1.432,0.54-2.538,1.705-3.002,3.164c-0.463,1.458-0.234,3.049,0.624,4.316c0.871,1.288,1.332,2.788,1.332,4.338   c0,4.29-3.49,7.78-7.78,7.78c-0.502,0-1.009-0.051-1.551-0.157c-1.633-0.319-3.318,0.195-4.495,1.373   c-1.016,1.017-1.538,2.413-1.455,3.827c-0.076,4.219-3.532,7.627-7.769,7.627c-1.349,0-2.631-0.336-3.81-0.999   c-1.328-0.747-2.921-0.846-4.331-0.274c-1.41,0.573-2.483,1.756-2.914,3.216c-0.967,3.271-4.028,5.557-7.445,5.557   c-2.088,0-4.048-0.817-5.52-2.3c-1.235-1.246-3.033-1.751-4.737-1.337c-1.704,0.417-3.065,1.695-3.587,3.37   c-1.019,3.27-4.003,5.467-7.427,5.467c-0.492,0-0.963-0.056-1.414-0.146c-8.976-3.662-15.988-7.538-23.173-11.509   c-16.964-9.378-34.464-19.038-77.82-27.632c-1.899-1.488-3.875-2.917-5.37-3.958c-3.209-2.233-5.862-5.183-5.862-9.096   c0-2.588,0.991-5.042,2.792-6.912C160.583,210.599,160.663,207.68,158.976,205.725z M240.214,268.807   c13.991,7.734,27.354,15.118,54.389,21.35l10.918,10.007l-34.974-2.15c-2.4-0.146-4.589,1.453-5.164,3.803   c-0.575,2.35,0.616,4.774,2.826,5.756l35.531,15.794l-15.967,11.011c-16.432,1.331-31.473,4.649-47.18,8.126   c-11.053,2.446-22.481,4.976-35.107,6.979c-4.545,0.721-10.004,1.086-16.225,1.086c-36.508,0-98.167-13.171-120.946-42.453   c-7.97-10.245-10.315-21.25-7.171-33.643c3.792-14.941,16.409-25.533,38.574-32.381c9.648-2.981,19.822-4.493,30.237-4.493   c5.939,0,11.969,0.498,17.921,1.48C202.851,248.153,221.845,258.653,240.214,268.807z M318.899,321.958   c-0.167-1.801-1.295-3.372-2.948-4.106l-18.348-8.156l21.4,1.315c2.113,0.127,4.081-1.087,4.909-3.036s0.338-4.209-1.224-5.641   l-9.197-8.431c0.589,0.101,1.164,0.203,1.763,0.303c1.805,0.301,3.653,0.454,5.493,0.454c4.497,0,8.75-1.38,13.151-2.623   c6.604-1.865,16.619,1.217,16.899,1.295c8.431,2.344,13.933,7.385,16.351,14.983c3.799,11.933-0.829,26.3-4.374,30.655   c-3.046,3.742-6.108,5.268-10.569,5.268c-5.904,0-14.213-2.805-25.403-8.575c-0.527-0.272-1.099-0.448-1.688-0.52   c-6.436-0.783-12.657-1.208-18.909-1.331l10.554-7.278C318.249,325.51,319.067,323.759,318.899,321.958z M366.065,289.867   c-3.435-2.666-7.519-4.712-12.218-6.063c-1.593-0.692-7.188-2.896-13.798-2.896c-3.57,0-6.919,0.633-9.955,1.882   c-4.24,1.744-8.814,2.284-13.194,1.554c-14.316-2.389-25.48-5.021-34.68-7.83c0.491-0.492,0.955-1.012,1.387-1.562   c2.265,1.021,4.741,1.559,7.302,1.559c5.998,0,11.519-3.081,14.763-7.899c1.225,0.264,2.479,0.399,3.737,0.399   c8.059,0,14.882-5.393,17.051-12.758c7.956-0.794,14.373-6.86,15.725-14.642c2.243-0.153,4.519-0.24,6.814-0.24   c30.507,0,51,12.927,51,25C400,276.576,385.858,286.275,366.065,289.867z M387.543,358.669   c-41.867,23.022-97.639,35.701-157.043,35.701s-115.177-12.679-157.043-35.701C32.536,336.167,10,306.584,10,275.37   c0-48.369,55.461-92.355,138.599-110.448c0.434,1.6,1.077,3.138,1.941,4.565c-1.699,2.509-2.766,5.406-3.083,8.465   c-0.417,3.921,0.425,7.824,2.348,11.188c-1.844,2.83-2.917,6.103-3.089,9.533c-0.177,3.563,0.629,7.05,2.304,10.136   c-1.966,3.144-3.02,6.781-3.02,10.561c0,3.462,0.903,6.788,2.524,9.703c-6.171-0.966-12.411-1.472-18.568-1.472   c-11.417,0-22.584,1.661-33.189,4.938c-25.415,7.852-40.66,21.134-45.314,39.476c-3.899,15.367-0.881,29.579,8.97,42.243   c26.247,33.739,92.956,46.313,128.839,46.313c6.744,0,12.729-0.407,17.791-1.21c12.925-2.05,24.504-4.613,35.702-7.092   c19.767-4.375,38.437-8.508,59.887-8.508c6.771,0,13.449,0.395,20.387,1.207c12.411,6.323,21.698,9.272,29.178,9.272   c7.425,0,13.419-2.929,18.324-8.955c5.548-6.814,10.93-24.98,6.148-40.002c-0.78-2.45-1.803-4.717-3.037-6.812   C395.698,293.043,410,280.7,410,266.37c0-19.626-26.794-35-61-35c-1.631,0-3.253,0.046-4.866,0.117   c3.664-3.687,5.866-8.74,5.866-14.117c0-3.78-1.054-7.417-3.021-10.561c1.675-3.086,2.481-6.575,2.304-10.139   c-0.172-3.429-1.245-6.701-3.089-9.531c1.922-3.363,2.764-7.263,2.348-11.175c-0.036-0.345-0.084-0.688-0.139-1.028   C411.975,196.807,451,234.721,451,275.37C451,306.584,428.464,336.167,387.543,358.669z"/><path d="M186.59,123.671c1.259,0,2.513-0.135,3.738-0.399c3.244,4.818,8.764,7.899,14.762,7.899c2.561,0,5.038-0.537,7.303-1.559   c3.293,4.192,8.374,6.758,13.967,6.758c3.451,0,6.803-1.025,9.651-2.871c3.215,2.951,7.455,4.651,11.989,4.651   c4.534,0,8.774-1.7,11.989-4.651c2.848,1.845,6.2,2.871,9.651,2.871c5.593,0,10.674-2.566,13.967-6.758   c2.265,1.021,4.742,1.559,7.303,1.559c5.998,0,11.519-3.081,14.762-7.899c1.226,0.264,2.479,0.399,3.738,0.399   c9.798,0,17.77-7.972,17.77-17.77c0-0.251-0.011-0.64-0.103-1.112c-0.531-2.709-3.158-4.472-5.869-3.945   c-2.488,0.488-4.18,2.743-4.03,5.206c-0.08,4.216-3.534,7.621-7.769,7.621c-1.349,0-2.631-0.336-3.81-0.999   c-1.328-0.747-2.921-0.847-4.331-0.274c-1.41,0.573-2.483,1.756-2.914,3.216c-0.967,3.272-4.028,5.557-7.445,5.557   c-2.088,0-4.048-0.817-5.519-2.3c-1.235-1.247-3.036-1.752-4.737-1.337c-1.705,0.417-3.066,1.695-3.588,3.37   c-1.019,3.27-4.003,5.467-7.426,5.467c-2.48,0-4.758-1.157-6.25-3.173c-1.03-1.392-2.696-2.15-4.433-2.009   c-1.726,0.143-3.255,1.169-4.041,2.712c-1.336,2.622-3.986,4.25-6.915,4.25s-5.579-1.629-6.916-4.25   c-0.786-1.543-2.315-2.569-4.041-2.712c-1.724-0.141-3.403,0.617-4.433,2.009c-1.492,2.017-3.77,3.173-6.25,3.173   c-3.423,0-6.408-2.197-7.427-5.467c-0.521-1.675-1.883-2.954-3.587-3.37c-1.703-0.413-3.501,0.092-4.737,1.337   c-1.471,1.483-3.431,2.3-5.519,2.3c-3.417,0-6.479-2.285-7.445-5.557c-0.431-1.459-1.504-2.643-2.914-3.216   c-1.41-0.571-3.004-0.471-4.332,0.274c-1.178,0.663-2.459,0.999-3.809,0.999c-4.233,0-7.687-3.403-7.769-7.622   c0.15-2.463-1.542-4.717-4.03-5.205c-2.706-0.53-5.337,1.235-5.869,3.945c-0.092,0.472-0.103,0.86-0.103,1.112   C168.82,115.699,176.792,123.671,186.59,123.671z"/><path d="M186.59,166.671c1.259,0,2.513-0.135,3.738-0.399c3.244,4.818,8.764,7.899,14.762,7.899c2.561,0,5.038-0.537,7.303-1.559   c3.293,4.192,8.374,6.758,13.967,6.758c3.451,0,6.803-1.025,9.651-2.871c3.215,2.951,7.455,4.651,11.989,4.651   c4.534,0,8.774-1.7,11.989-4.651c2.848,1.845,6.2,2.871,9.651,2.871c5.593,0,10.674-2.566,13.967-6.758   c2.265,1.021,4.742,1.559,7.303,1.559c5.998,0,11.519-3.081,14.762-7.899c1.226,0.264,2.479,0.399,3.738,0.399   c9.798,0,17.77-7.972,17.77-17.77c0-0.251-0.011-0.64-0.103-1.112c-0.531-2.71-3.158-4.474-5.869-3.945   c-2.488,0.488-4.18,2.743-4.03,5.206c-0.08,4.216-3.534,7.621-7.769,7.621c-1.349,0-2.631-0.336-3.81-0.999   c-1.328-0.746-2.921-0.847-4.331-0.274c-1.41,0.573-2.483,1.756-2.914,3.216c-0.967,3.272-4.028,5.557-7.445,5.557   c-2.088,0-4.048-0.817-5.519-2.3c-1.235-1.247-3.036-1.753-4.737-1.337c-1.705,0.417-3.066,1.695-3.588,3.37   c-1.019,3.27-4.003,5.467-7.426,5.467c-2.48,0-4.758-1.157-6.25-3.173c-1.03-1.392-2.696-2.145-4.433-2.009   c-1.726,0.143-3.255,1.169-4.041,2.712c-1.336,2.622-3.986,4.25-6.915,4.25s-5.579-1.629-6.916-4.25   c-0.786-1.543-2.315-2.569-4.041-2.712c-1.724-0.142-3.403,0.617-4.433,2.009c-1.492,2.017-3.77,3.173-6.25,3.173   c-3.423,0-6.408-2.197-7.427-5.467c-0.521-1.675-1.883-2.954-3.587-3.37c-1.703-0.415-3.501,0.092-4.737,1.337   c-1.471,1.483-3.431,2.3-5.519,2.3c-3.417,0-6.479-2.285-7.445-5.557c-0.431-1.459-1.504-2.643-2.914-3.216   c-1.41-0.572-3.004-0.471-4.332,0.274c-1.178,0.663-2.459,0.999-3.809,0.999c-4.233,0-7.687-3.403-7.769-7.622   c0.15-2.463-1.542-4.717-4.03-5.205c-2.706-0.529-5.337,1.234-5.869,3.945c-0.092,0.472-0.103,0.86-0.103,1.112   C168.82,158.699,176.792,166.671,186.59,166.671z"/><path d="M186.59,217.671c1.259,0,2.513-0.135,3.738-0.399c3.244,4.818,8.764,7.899,14.762,7.899c2.561,0,5.038-0.537,7.303-1.559   c3.293,4.192,8.374,6.758,13.967,6.758c3.451,0,6.803-1.025,9.651-2.871c3.215,2.951,7.455,4.651,11.989,4.651   c4.534,0,8.774-1.7,11.989-4.651c2.848,1.845,6.2,2.871,9.651,2.871c5.593,0,10.674-2.566,13.967-6.758   c2.265,1.021,4.742,1.559,7.303,1.559c5.998,0,11.519-3.081,14.762-7.899c1.226,0.264,2.479,0.399,3.738,0.399   c9.798,0,17.77-7.972,17.77-17.77c0-0.251-0.011-0.64-0.103-1.112c-0.531-2.71-3.158-4.473-5.869-3.945   c-2.488,0.488-4.18,2.743-4.03,5.206c-0.08,4.216-3.534,7.621-7.769,7.621c-1.349,0-2.631-0.336-3.81-0.999   c-1.328-0.747-2.921-0.846-4.331-0.274c-1.41,0.573-2.483,1.756-2.914,3.216c-0.967,3.272-4.028,5.557-7.445,5.557   c-2.088,0-4.048-0.817-5.519-2.3c-1.235-1.247-3.036-1.752-4.737-1.337c-1.705,0.417-3.066,1.695-3.588,3.37   c-1.019,3.27-4.003,5.467-7.426,5.467c-2.48,0-4.758-1.157-6.25-3.173c-1.03-1.392-2.696-2.147-4.433-2.009   c-1.726,0.143-3.255,1.169-4.041,2.712c-1.336,2.622-3.986,4.25-6.915,4.25s-5.579-1.629-6.916-4.25   c-0.786-1.543-2.315-2.569-4.041-2.712c-1.724-0.143-3.403,0.617-4.433,2.009c-1.492,2.017-3.77,3.173-6.25,3.173   c-3.423,0-6.408-2.197-7.427-5.467c-0.521-1.675-1.883-2.954-3.587-3.37c-1.703-0.413-3.501,0.092-4.737,1.337   c-1.471,1.483-3.431,2.3-5.519,2.3c-3.417,0-6.479-2.285-7.445-5.557c-0.431-1.459-1.504-2.643-2.914-3.216   c-1.41-0.572-3.004-0.471-4.332,0.274c-1.178,0.663-2.459,0.999-3.809,0.999c-4.233,0-7.687-3.403-7.769-7.622   c0.15-2.463-1.542-4.717-4.03-5.205c-2.706-0.528-5.337,1.235-5.869,3.945c-0.092,0.472-0.103,0.86-0.103,1.112   C168.82,209.699,176.792,217.671,186.59,217.671z"/><path d="M232.64,113.62c8.185,0,16.112-0.975,22.32-2.745c5.616-1.602,9.602-3.764,11.905-6.449   c11.893-1.786,21.371-6.162,21.371-13.556c0-10.017-17.387-14.5-34.618-14.5c-12.541,0-25.156,2.378-31.099,7.532   c-8.088,0.853-26.429,3.963-26.429,14.598C196.09,108.945,214.447,113.62,232.64,113.62z M253.618,86.37   c12.864,0,21.182,2.639,23.938,4.5c-2.756,1.861-11.074,4.5-23.938,4.5s-21.183-2.639-23.938-4.5   C232.435,89.009,240.753,86.37,253.618,86.37z M219.762,94.325c2.075,4.474,8.209,7.505,15.983,9.245   c-1.006,0.033-2.039,0.051-3.106,0.051c-14.594,0-23.476-3.208-26.029-5.116C208.225,97.291,212.457,95.442,219.762,94.325z"/></g><g transform="matrix(0.10026156902313232 0 0 0.10026156902313232 228.33792647905238 185.3329792022705)" id="L1_12"><circle cx="256" cy="223" r="223" fill="#ffd93b"/><path d="M394.641,290.352c-21.52,55.472-75.456,94.88-138.624,94.88s-117.104-39.408-138.624-94.88  c-2.656-6.848,3.488-13.696,10.48-12.016c85.376,19.008,170.896,19.008,256.288,0C391.137,276.656,397.297,283.504,394.641,290.352z  " fill="#000000"/><path d="M479.585,223.584c0,123.536-100.128,223.584-223.584,223.584c-70.288,0-133.04-32.416-174.048-83.216  c38.352,31.024,87.2,49.536,140.368,49.536c123.456,0,223.584-100.048,223.584-223.584c0-53.168-18.512-102.016-49.536-140.368  C447.105,90.56,479.585,153.296,479.585,223.584z" fill="#f4c534"/><circle cx="171" cy="183" r="70" fill="#ffffff"/><path d="M186.337,90.768c-5.2,1.008-11.968,1.664-17.264,2.096c0,0-25.744,3.232-51.872,23.264  c-29.152,24.896-33.856,47.024-39.488,62.16c-6.688-29.424,5.888-55.984,28.496-75.792  C132.001,83.264,157.217,78.992,186.337,90.768z" fill="#f4c534"/><circle cx="171" cy="183" r="30" fill="#000000"/><g><ellipse cx="183px" cy="171px" rx="9px" ry="5px" transform="matrix(-0.7071 -0.7071 0.7071 -0.7071 191.8705 422.0625)" fill="#ffffff"/><circle cx="340" cy="183" r="70" fill="#ffffff"/></g><path d="M325.665,90.768c5.2,1.008,11.968,1.664,17.264,2.096c0,0,25.744,3.232,51.872,23.264  c29.152,24.896,33.856,47.024,39.488,62.16c6.688-29.424-5.888-55.984-28.496-75.776C380.001,83.264,354.785,78.992,325.665,90.768z  " fill="#f4c534"/><circle cx="340" cy="183" r="30" fill="#000000"/><ellipse cx="328px" cy="171px" rx="5px" ry="9px" transform="matrix(-0.7071 -0.7071 0.7071 -0.7071 439.9244 524.7495)" fill="#ffffff"/><path d="M208.289,378c25.168,14.88,44.144,39.92,51.712,68.32c1.6,5.968,2.784,12.208,4.144,18.368  c1.504,3.376,2.896,6.88,4.064,10.656c5.456,17.792,23.2,19.84,41.232,13.104c30.448-11.392,46.56-44.816,40.4-76.736  c-13.408-69.616-73.12-82.928-90.512-72.72c-4.32,2.528-9.36,3.152-14.192,1.84C211.121,331.632,194.273,369.52,208.289,378z" fill="#e24b4b"/><path d="M136.737,280.064c27.344,39.584,58.496,43.872,119.248,43.872s91.952-4.288,119.296-43.872  C295.809,296.528,216.225,296.528,136.737,280.064z" fill="#ffffff"/><g><path d="M367.297,339.184c-6.304,8.96-6.768,9.168-3.856,18.704c2.24,6-5.168,5.984-2.544,0.72   c2.56-5.632-2.912-6.224-4.096-0.848c-2.992,13.952,0.784,24.544,5.68,31.76c3.072,9.376-10.288,13.952-8.32,2.928   c2.656-14.96-11.648-42.016-0.976-58.704C358.897,318.88,376.785,324.96,367.297,339.184z" fill="#65b1ef"/><path d="M351.601,411.696c-0.704,2.512-3.92,4.464-6.016,2.928c-2.096-1.68-1.12-5.024-1.12-7.824   c0.192-6.256-5.056-10.464-9.92-14.112c-2.288-1.52-13.264-10.496-15.648-9.776c-2.048,0.368-3.52,3.088-0.416,8.24   c8.432,13.968,25.024,59.04,14.256,60.64c-2.24,0.416-4.192-1.952-4.336-4.192c-0.272-2.368,0.704-4.608,1.264-6.848   c4.896-19.04-17.232-33.568-19.712-51.984c-0.688-5.584,0.272-11.6-2.24-16.624c-2.24-4.336-6.848-7.264-7.968-11.872   c-2.304-10.08,11.616-16.32,18.032-9.92c0.752,0.368,1.76,1.152,2.24,1.952c0.224,0.112,0.688,0.432,0.688,0.704   c2.96,2.368,6.944-1.456,9.088,1.68c19.36,28.4,19.056,46.704,20.256,49.472C351.185,406.528,352.161,409.184,351.601,411.696z" fill="#65b1ef"/><path d="M278.273,488.16c0.272,2.096,0.976,4.192,0.832,6.288c0,9.296-10.448,7.904-9.232-7.12   c2.736-33.856,3.344-27.904-5.728-44.576c-2.096-1.392-8.24-4.048-7.552-7.264c0.704-2.8,7.264-2.24,8.672-0.704   c-1.952-2.096-0.144-6.144,2.656-6.848c8.592-2.576,16.976,15.568,21.664,23.616C301.041,471.184,274.881,465.408,278.273,488.16z" fill="#65b1ef"/><path d="M189.073,388.784c-4.528,0-3.744-5.52-4.048-9.504c0-14.336-24.496,0.304-19.28,15.504   c1.12,2.928,2.928,5.456,4.048,8.24c2.96,7.776-2.592,12.304-8.24,9.648c-10.16-5.376-2.272-30.432-1.392-42.208   c0.832-9.088-0.56-18.592-6.016-25.712c0.976-1.536,2.928-2.8,4.752-2.24c2.24,0.704,3.072,3.36,4.896,4.608   c2.512,1.824,5.872,0.704,8.8,1.264C183.441,350.368,201.409,389.808,189.073,388.784z" fill="#65b1ef"/><path d="M286.753,511.232c-5.136-2.8,0.832-26.56,1.76-32.672   C298.881,508.416,291.537,514.432,286.753,511.232z" fill="#65b1ef"/></g></g><g transform="matrix(0.11718704551458359 0 0 0.11718704551458359 153.00000137328573 23)" id="L1_13"><path d="M183,30c-26.401,0-48.304,19.593-51.956,45H80.5c-4.143,0-7.5,3.357-7.5,7.5s3.357,7.5,7.5,7.5h50v7.5    c0,28.948,23.552,52.5,52.5,52.5s52.5-23.552,52.5-52.5v-15C235.5,53.552,211.948,30,183,30z M183,45    c18.11,0,33.261,12.904,36.745,30h-73.491C149.739,57.904,164.89,45,183,45z M220.5,97.5c0,20.678-16.822,37.5-37.5,37.5    c-20.678,0-37.5-16.822-37.5-37.5V90h75V97.5z"/><path d="M431.5,0h-157c-4.143,0-7.5,3.357-7.5,7.5v180c0,4.143,3.357,7.5,7.5,7.5h64.168    c-13.854,10.312-30.582,15.888-48.168,15.888c-20.694,0-40.188-7.735-55.22-21.809C233.588,175.525,222.004,165,208,165h-50    c-12.703,0-23.418,8.66-26.562,20.385C102.812,188.653,80.5,213.013,80.5,242.5c0,29.331,22.08,53.585,50.488,57.057    c1.547,11.458,6.797,21.752,14.512,29.635v159.903l-24.872,8.29c-3.93,1.31-6.053,5.558-4.743,9.487    c1.048,3.143,3.974,5.13,7.114,5.13c0.786,0,1.586-0.125,2.373-0.387l30-10c3.063-1.021,5.128-3.887,5.128-7.115V339.924    c6.824,3.251,14.452,5.076,22.5,5.076c8.048,0,15.676-1.825,22.5-5.076V494.5c0,3.229,2.065,6.095,5.128,7.115l30,10    c0.787,0.262,1.587,0.387,2.373,0.387c3.141,0,6.066-1.987,7.114-5.13c1.31-3.93-0.813-8.178-4.743-9.487l-24.872-8.29V329.192    c9.27-9.472,15-22.423,15-36.692v-83.925c16.001,11.251,35.034,17.312,55,17.312c25.613,0,49.692-9.974,67.804-28.084    c0.868-0.869,1.755-1.803,2.669-2.804h70.528c4.143,0,7.5-3.357,7.5-7.5V7.5C439,3.357,435.643,0,431.5,0z M130.5,284.324    c-19.868-3.554-35-20.949-35-41.824s15.132-38.27,35-41.824V284.324z M145.5,192.5c0-6.893,5.607-12.5,12.5-12.5h17.5v105h-30    V192.5z M183,330c-18.11,0-33.261-12.904-36.745-30H175.5v7.5c0,4.143,3.357,7.5,7.5,7.5s7.5-3.357,7.5-7.5V300h29.245    C216.261,317.096,201.11,330,183,330z M220.5,285h-30V180H208c6.892,0,12.499,5.606,12.5,12.498    C220.5,192.506,220.5,285,220.5,285z M424,180H282v-15h142V180z M424,120h-89.5c-4.143,0-7.5,3.357-7.5,7.5s3.357,7.5,7.5,7.5H424    v15H282v-15h22.5c4.143,0,7.5-3.357,7.5-7.5s-3.357-7.5-7.5-7.5H282v-15h142V120z M424,90H282V75h142V90z M424,60H282V45h142V60z     M424,30H282V15h142V30z"/></g><g transform="matrix(0.12958963215351105 0 0 0.12958963215351105 99 238)" id="L1_14"><path d="M407.5,280c-6.255,0-12.265,1.055-17.879,2.972l-7.645-15.291C389.968,264.658,398.58,263,407.5,263     c10.076,0,19.826,2.025,28.978,6.021c3.794,1.654,8.217-0.078,9.874-3.873c1.657-3.797-0.077-8.218-3.873-9.875     C431.422,250.447,419.654,248,407.5,248c-11.307,0-22.207,2.205-32.257,6.215l-27.785-55.57c1.314,0.229,2.663,0.355,4.042,0.355     h16c4.142,0,7.5-3.357,7.5-7.5v-32c0-4.143-3.358-7.5-7.5-7.5h-16c-9.126,0-17.048,5.232-20.939,12.852l-7.931-15.862     c-4.006-8.013-12.061-12.99-21.019-12.99H287.5c-4.142,0-7.5,3.357-7.5,7.5s3.358,7.5,7.5,7.5h14.111     c3.24,0,6.154,1.801,7.603,4.699l19.424,38.847l-3.647,1.824C316.978,200.376,312,208.43,312,217.389V296h-64.5     c-13.509,0-24.5-10.99-24.5-24.5V239h0.5c12.958,0,23.5-10.542,23.5-23.5S236.458,192,223.5,192h-64     c-6.425,0-12.253,2.594-16.5,6.787V87.5c0-8.547-6.953-15.5-15.5-15.5h-112C6.953,72,0,78.953,0,87.5v112     c0,8.547,6.953,15.5,15.5,15.5h16.834c-0.354,1.537-0.547,3.121-0.521,4.74C31.981,230.36,40.758,239,51.379,239h40.322     c-5.071,3.238-9.415,6.665-13.03,9.914c-16.617,14.933-25.497,32.727-28.266,44.4c-1.493,6.295-0.06,12.795,3.933,17.836     c3.938,4.973,9.837,7.821,16.189,7.821c0.014,0,0.027,0,0.041,0l3.952-0.007C72.861,324.291,72,329.868,72,335.5     c0,30.603,24.897,55.5,55.5,55.5c28.058,0,51.305-20.934,54.979-48H327.5c4.142,0,7.5-3.357,7.5-7.5     c0-4.887,0.488-9.769,1.451-14.509c4.006-19.734,15.971-36.281,32.117-46.586l7.643,15.286     C361.605,299.699,352,316.497,352,335.5c0,30.603,24.897,55.5,55.5,55.5c30.603,0,55.5-24.897,55.5-55.5     C463,304.897,438.103,280,407.5,280z M159.5,207h64c4.687,0,8.5,3.813,8.5,8.5s-3.813,8.5-8.5,8.5h-64     c-4.687,0-8.5-3.813-8.5-8.5S154.813,207,159.5,207z M15,87.5c0-0.275,0.224-0.5,0.5-0.5h112c0.276,0,0.5,0.225,0.5,0.5V104H15     V87.5z M15.5,200c-0.276,0-0.5-0.225-0.5-0.5V119h113v80.5c0,0.275-0.224,0.5-0.5,0.5H15.5z M51.379,224     c-2.479,0-4.528-2.017-4.567-4.496c-0.02-1.235,0.448-2.4,1.315-3.28c0.61-0.618,1.368-1.028,2.191-1.224l85.695,0.024     c-0.003,0.159-0.012,0.316-0.012,0.476c0,2.997,0.57,5.862,1.597,8.5H51.379z M70.54,303.972c-0.004,0-0.008,0-0.012,0     c-2.383,0-3.799-1.337-4.431-2.135c-1.123-1.418-1.522-3.262-1.096-5.06C70.528,273.477,99.299,239,143.5,239     c34.313,0,47.1,32.793,47.1,53.464c0,5.606-3.095,11.288-9.011,11.299L70.54,303.972z M136,335.5c0,4.687-3.813,8.5-8.5,8.5     s-8.5-3.813-8.5-8.5s3.813-8.5,8.5-8.5S136,330.813,136,335.5z M127.5,376c-22.332,0-40.5-18.168-40.5-40.5     c0-5.735,1.234-11.383,3.556-16.566l20.33-0.038C106.634,323.151,104,329.023,104,335.5c0,12.958,10.542,23.5,23.5,23.5     s23.5-10.542,23.5-23.5c0-6.509-2.661-12.407-6.951-16.667l20.332-0.039c2.363,5.22,3.619,10.918,3.619,16.705     C168,357.832,149.832,376,127.5,376z M321.751,318.007c-0.668,3.287-1.146,6.628-1.433,9.993h-137.83     c-0.427-3.136-1.123-6.226-2.073-9.235l1.2-0.002c13.673-0.025,23.984-11.331,23.984-26.299c0-16.229-5.401-32.675-14.819-45.119     c-2.066-2.73-4.575-5.594-7.572-8.345H208v32.5c0,21.78,17.72,39.5,39.5,39.5h72c1.662,0,3.193-0.547,4.436-1.462     C323.077,312.303,322.336,315.123,321.751,318.007z M351.5,167h8.5v17h-8.5c-4.687,0-8.5-3.813-8.5-8.5S346.813,167,351.5,167z      M327,301.213v-83.825c0-3.24,1.8-6.153,4.699-7.603l3.647-1.824l26.49,52.979C346.522,270.341,334.206,284.344,327,301.213z      M407.5,376c-22.332,0-40.5-18.168-40.5-40.5c0-22.332,18.168-40.5,40.5-40.5c22.332,0,40.5,18.168,40.5,40.5     C448,357.832,429.832,376,407.5,376z"/><path d="M407.5,312c-12.958,0-23.5,10.542-23.5,23.5s10.542,23.5,23.5,23.5s23.5-10.542,23.5-23.5S420.458,312,407.5,312z      M407.5,344c-4.687,0-8.5-3.813-8.5-8.5s3.813-8.5,8.5-8.5s8.5,3.813,8.5,8.5S412.187,344,407.5,344z"/></g><g transform="matrix(0.04742303118109703 0 0 0.04742303118109703 108.94273952896572 71.92885786826969)" id="L1_15"><path d="M530.526,262.647c-150.9,5.8-224-115.101-240.8-250.601c-1.8-14.7-23.3-15.6-23.6,0c-3.1,102.8-69.8,239.9-188.2,237.8    c-8.3-0.3-11,8-8.3,13.801c-0.3,0.3-0.6,0.6-0.9,1.199c-14.1,27.2,68.8,53.601,83.2,60.9c76.3,38.2,108.7,106.399,145.1,176.8    c0.3,4.3,2.1,7,4.6,8.9c5.801,11,11.601,22.3,18.101,33.399c6.7,11.9,22.3,5.2,23.899-6.399c12.5-109.7,71.2-231.7,190.601-251    C547.926,284.947,544.625,262.347,530.526,262.647z M244.426,166.847c-0.9,2.101-2.1,4.301-3.1,6.101    c-5.8,8.6-11,17.399-16.2,26.6c-2.1,1.2-4.6,2.8-6.7,4C228.226,192.547,236.726,180.047,244.426,166.847z M314.826,168.047    c-6.1-11-12.5-21.7-19.3-32.399c-0.9-4.9-1.5-9.801-2.4-14.7c7,17.7,15,34.6,24.5,50.2    C316.625,169.947,315.726,169.047,314.826,168.047z"/><path d="M137.926,42.047c-29.7,9.8-46.8-2.399-63.6-21.399c-4.3-7.301-10.4-14.101-19-19.601c-4.9-3.399-11.9,2.101-10.1,7.601    c0.6,1.8,1.2,3.399,1.8,5.199c-0.9,2.101-1.2,4.301-0.6,6.4c1.5,6.4,4,12.2,7.3,17.4c5.5,27.8,1.2,52.899-36.7,62.1    c-13.5,3.4-11,26,3.4,24.5c31.2-3.1,56,6.7,66.7,38.2c4.3,12.899,26.3,11.6,24.8-3.4c-3.7-37,2.4-72.8,35.8-94.2    C159.326,57.647,152.026,37.147,137.926,42.047z"/><path d="M502.026,96.147c-12.9-4-25.7-8.601-33.7-20.2c-3.7-5.5-4.6-11.601-8.899-15.9c0-5.8-0.301-11.6-1.801-17.7    c-1.5-7-11.899-5.199-12.199,1.5c-0.9,33.4-16.2,52-49.301,57.801c-9.5,1.5-11,16.199-2.8,20.199c22.601,11,38.9,16.5,53.9,38.2    c4.899,7.3,14.399,7,19.3,0c11.6-16.5,26-30.899,40.4-45C513.026,108.747,510.026,98.647,502.026,96.147z"/><path d="M172.826,431.847c-20.2-0.899-22-20.2-34-33.399c-8.9-10.101-22.9,1.8-19,12.5c-1.8,3.399-3.7,7.3-6.7,10.399    c-12.2,12.5-26.6,19-43.5,21.7c-13.5,2.1-9.5,22.3,3.1,22.6c27.5,0.601,46.5,10.7,52,38.9c2.4,12.2,19,10.1,22.3,0    c7.3-21.4,19.6-35.2,34-52.6C187.526,444.047,183.526,432.447,172.826,431.847z"/></g><path d="M334.827,202.24c-3.2-35.2-23.253-89.493-85.973-89.493c-48,0-89.28,40.747-105.28,60.693    c-12.373,15.467-43.84,52.8-48.747,58.133c-5.44,6.293-14.4,17.92-23.787,17.92c-9.493,0-15.253-17.813-7.787-41.067    c7.467-23.36,29.867-61.013,39.467-74.987c16.747-24.32,27.627-41.067,27.627-69.973c0-46.933-34.987-61.653-53.547-61.653    c-28.16,0-52.693,21.333-58.133,26.773C11.093,36.267,4.693,42.56,0,48.32l37.547,36.267C52.48,69.333,67.413,55.68,74.133,58.453    c10.56,4.373-0.213,22.187-6.4,32.533C62.4,99.947,6.72,173.867,6.72,225.6c0,27.307,10.133,49.92,28.693,63.573    c16,11.84,37.013,15.467,56.32,9.813c22.827-6.72,41.6-29.76,65.28-58.987c25.813-31.787,60.373-73.387,87.04-73.387    c34.773,0,35.2,21.547,37.547,38.293c-80.853,13.867-114.88,78.4-114.88,114.773s30.72,66.027,68.373,66.027    c34.667,0,91.627-28.373,100.053-130.133h52.373V202.24H334.827z M235.733,333.547L235.733,333.547    c-6.613,0-15.68-5.547-15.68-15.467c0-12.8,15.467-46.933,61.333-58.987C274.773,316.587,250.667,333.547,235.733,333.547z" transform="matrix(0.08438703945275618 0.014676006309790095 -0.014676006309790095 0.08438703945275618 283.4744613060635 -14.190709989005153)" id="L1_16"/><g transform="matrix(0.18564965848689072 -0.03822198721045762 0.03822198721045762 0.18564965848689072 52.922231163375685 162.8217258508842)" id="L1_17"><path d="M65.62,10.817c-63.534,18.787-81.575,99.372-51.312,153.42c0.049,28.223,0.468,56.322,4.547,84.322   c1.333,9.132,13.021,11.797,19.978,8.121c25.705-13.549,49.071-30.785,73.041-47.113c53.161,4.232,109.363-5.831,136.809-56.99   c21.033-39.221,10.867-88.26-20.212-118.778C189.103-4.875,114.838-3.743,65.62,10.817z M223.217,142.529   c-21.533,40.157-70.561,43.154-110.826,39.912c-2.148-0.865-4.563-1.044-7.098-0.326c-3.492,0.348-6.043,2.029-7.74,4.378   c-18.069,12.325-35.833,25.123-54.516,36.474c-1.735-21.158-1.539-42.501-1.55-63.691c0-3.65-1.61-6.984-4.063-9.459   c-12.907-24.247-13.141-56.931-2.007-81.863c9.839-22.034,32.575-30.747,54.619-35.136c39.167-7.794,92.268-6.249,122.281,23.23   C235.28,78.599,237.973,115.024,223.217,142.529z" fill="#010002"/><path d="M181.238,70.424c-16.524,5.439-28.86,11.34-45.525,1.594c-8.887-5.2-15.822-9.556-25.95-11.863   c-16.654-3.791-34.397,6.043-48.903,12.765c-7.952,3.682-1.039,15.398,6.864,11.737c11.259-5.211,22.153-10.568,34.696-11.536   c14.055-1.082,23.143,11.009,35.104,15.447c17.296,6.424,30.481,0.511,47.325-5.037C193.144,80.807,189.592,67.671,181.238,70.424z   " fill="#010002"/><path d="M181.238,125.489c-16.524,5.439-28.86,11.34-45.525,1.594c-8.887-5.2-15.822-9.556-25.95-11.863   c-16.654-3.791-34.397,6.043-48.903,12.765c-7.952,3.682-1.039,15.398,6.864,11.738c11.259-5.211,22.153-10.568,34.696-11.536   c14.055-1.082,23.143,11.003,35.104,15.447c17.296,6.424,30.481,0.511,47.325-5.037   C193.144,135.872,189.592,122.737,181.238,125.489z" fill="#010002"/></g><g transform="matrix(0.10241826638035312 -0.00975412043607473 0.00975412043607473 0.10241826638035312 301.061840055213 278.9360419437578)" id="L1_18"><path d="M271.768,62.158C237.42,29.165,177.857,44.781,136.64,51.781   C94.405,56.806,34.276,62.817,13.962,106.427c-16.573,35.571-16.763,84.681-9.013,122.254c3.209,15.539,11.4,33.717,25.351,42.485   c23.007,14.452,41.582,5.14,59.15-12.749c8.822-8.985,16.116-19.33,24.911-28.332c8.512-8.719,24.568-6.152,35.62-7.734   c14.685-2.105,29.197-5.205,43.964-6.804c18.047-1.953,25.917,6.092,36.812,18.895c16.926,19.891,60.2,41.326,79.557,12.76   c17.644-26.031,7.468-66.563,1.148-94.645C304.418,121.303,295.547,84.992,271.768,62.158z M289.515,229.007   c-7.321,23.584-58.595-36.192-68.549-38.715c-14.985-3.791-29.741-1.817-44.829,0.315c-19.635,2.779-39.809,4.623-59.242,8.333   c-26.233,5.009-59.014,74.336-79.856,39.401c-16.905-28.359-9.959-74.678-3.198-105.017c10.242-45.96,66.329-49.952,105.463-54.668   c0.549-0.065,1.028-0.228,1.545-0.337c0.68-0.027,1.354-0.022,2.072-0.141c34.337-5.765,84.871-20.554,113.502,6.946   c16.801,16.138,22.322,48.342,27.712,70.039C289.815,178.005,296.706,205.81,289.515,229.007z" fill="#010002"/><path d="M74.651,120.117c-1.343-0.038-2.458,0.283-3.389,0.794c-14.142,4.329-23.105,18.21-20.75,33.059   c2.475,15.648,17.965,25.602,33.309,21.794c12.999-3.225,20.146-17.971,19.722-30.388   C102.988,129.331,89.565,120.52,74.651,120.117z M82.102,161.862c-7.011,4.253-15.8-1.61-17.905-8.501   c-2.681-8.8,3.182-17.073,11.362-19.575c7.256,0.424,13.657,3.563,14.386,11.596C90.516,151.723,87.612,158.522,82.102,161.862z" fill="#010002"/><path d="M227.108,98.644c-1.343-0.038-2.458,0.283-3.389,0.794c-14.142,4.324-23.105,18.21-20.75,33.059   c2.475,15.648,17.965,25.602,33.309,21.794c12.999-3.225,20.146-17.971,19.722-30.388   C255.445,107.857,242.021,99.046,227.108,98.644z M234.559,140.388c-7.011,4.253-15.8-1.61-17.905-8.501   c-2.681-8.8,3.182-17.073,11.362-19.575c7.256,0.424,13.657,3.563,14.386,11.596C242.973,130.25,240.063,137.043,234.559,140.388z" fill="#010002"/></g><g transform="matrix(-0.18564965848689072 0.03822198721045762 0.03822198721045762 0.18564965848689072 122.00549271148037 154.92223116337567)"><path d="M65.62,10.817c-63.534,18.787-81.575,99.372-51.312,153.42c0.049,28.223,0.468,56.322,4.547,84.322   c1.333,9.132,13.021,11.797,19.978,8.121c25.705-13.549,49.071-30.785,73.041-47.113c53.161,4.232,109.363-5.831,136.809-56.99   c21.033-39.221,10.867-88.26-20.212-118.778C189.103-4.875,114.838-3.743,65.62,10.817z M223.217,142.529   c-21.533,40.157-70.561,43.154-110.826,39.912c-2.148-0.865-4.563-1.044-7.098-0.326c-3.492,0.348-6.043,2.029-7.74,4.378   c-18.069,12.325-35.833,25.123-54.516,36.474c-1.735-21.158-1.539-42.501-1.55-63.691c0-3.65-1.61-6.984-4.063-9.459   c-12.907-24.247-13.141-56.931-2.007-81.863c9.839-22.034,32.575-30.747,54.619-35.136c39.167-7.794,92.268-6.249,122.281,23.23   C235.28,78.599,237.973,115.024,223.217,142.529z" fill="#010002"/><path d="M181.238,70.424c-16.524,5.439-28.86,11.34-45.525,1.594c-8.887-5.2-15.822-9.556-25.95-11.863   c-16.654-3.791-34.397,6.043-48.903,12.765c-7.952,3.682-1.039,15.398,6.864,11.737c11.259-5.211,22.153-10.568,34.696-11.536   c14.055-1.082,23.143,11.009,35.104,15.447c17.296,6.424,30.481,0.511,47.325-5.037C193.144,80.807,189.592,67.671,181.238,70.424z   " fill="#010002"/><path d="M181.238,125.489c-16.524,5.439-28.86,11.34-45.525,1.594c-8.887-5.2-15.822-9.556-25.95-11.863   c-16.654-3.791-34.397,6.043-48.903,12.765c-7.952,3.682-1.039,15.398,6.864,11.738c11.259-5.211,22.153-10.568,34.696-11.536   c14.055-1.082,23.143,11.003,35.104,15.447c17.296,6.424,30.481,0.511,47.325-5.037   C193.144,135.872,189.592,122.737,181.238,125.489z" fill="#010002"/></g><g transform="matrix(0.3343647101829612 0.33436471018296116 -0.33436471018296116 0.3343647101829612 21.10290502141396 76.80034373401608)" id="L1_19"><path d="M35.461,0.317c0.13-0.12,0.058-0.367-0.149-0.308c-0.232,0.065-0.455,0.144-0.676,0.224   c-0.027-0.008-0.041-0.031-0.075-0.031C21.597,0.21,12.202,8.373,6.609,19.445c-0.636,0.082-1.279,0.128-1.783,0.662   c-0.432,0.459-0.641,1.067-0.576,1.655c-0.084-0.161-0.354-0.039-0.303,0.139c0.28,0.989,0.367,1.079,1.012,1.88   c1.861,2.311,3.263,4.22,4.177,7.161c0.947,3.05,2.427,5.816,4.563,8.211c4.959,5.56,12.265,8.303,19.582,8.705   c0.397,0.107,0.808,0.193,1.247,0.236c9.881,0.95,9.469-16.718,9.617-22.681C44.31,18.783,44.51,1.869,35.461,0.317z    M12.003,35.937c-1.738-2.75-2.062-5.793-3.428-8.635c-0.912-1.897-2.724-2.98-3.823-4.64c0.045-0.024,0.076-0.068,0.052-0.131   c-0.38-1.02,0.158-2.327,1.289-2.52c0.742-0.127,1.745,0.055,2.097-0.786c0.061-0.146-0.148-0.304-0.274-0.21   c-0.255,0.19-0.536,0.287-0.825,0.35c3.067-5.095,6.034-9.952,11.053-13.419c4.57-3.157,9.698-4.662,15.141-5.095   c-7.232,3.999-7.899,16.722-7.872,23.79c0.022,5.759-0.135,19.081,6.347,22.613C23.949,45.946,16.463,42.991,12.003,35.937z    M43.498,25.414c-0.143,5.843-0.767,28.226-12.205,20.5c-5.817-3.929-5.385-16.9-5.222-23.044   c0.189-7.15,1.278-18.533,8.619-22.151c0.048,0.056,0.114,0.098,0.202,0.109C43.889,1.929,43.658,18.885,43.498,25.414z" fill="#1d1d1b"/><path d="M25.353,42.976c-0.133,0.184-0.201,0.417-0.413,0.53c-0.133,0.141-0.291,0.14-0.472-0.005   c-0.134-0.116-0.147-0.259-0.039-0.428c0.081-0.077-0.04-0.196-0.122-0.122c-0.297,0.269-0.171,0.757,0.177,0.922   c0.523,0.248,1.099-0.329,1.102-0.833C25.586,42.906,25.422,42.881,25.353,42.976z" fill="#1d1d1b"/><path d="M24.621,42.333c-0.042,0.193,0.246,0.276,0.298,0.082c0.089-0.329,0.542-0.498,0.737-0.158   c0.084,0.146,0.077,0.269,0.079,0.435c0.001,0.146,0.175,0.169,0.252,0.068C26.611,41.943,24.885,41.124,24.621,42.333z" fill="#1d1d1b"/><path d="M23.417,41.828c-0.12,0.447-0.548,0.724-0.981,0.455c-0.112-0.07-0.242,0.094-0.143,0.185   c0.486,0.444,1.464,0.114,1.427-0.599C23.712,41.7,23.464,41.654,23.417,41.828z" fill="#1d1d1b"/><path d="M16.009,37.135c-0.068-0.1-0.237-0.068-0.236,0.064c0.001,0.193,0.026,0.238-0.123,0.401   c-0.185,0.203-0.383,0.199-0.584-0.089c-0.081-0.116-0.257-0.016-0.191,0.112C15.281,38.415,16.547,37.925,16.009,37.135z" fill="#1d1d1b"/><path d="M15.115,35.478c-0.386,0.176-0.461,0.678-0.229,1.002c0.119,0.166,0.388,0.019,0.279-0.163   c-0.276-0.462,0.446-0.357,0.541-0.194c0.081,0.139,0.3,0.078,0.301-0.082C16.011,35.603,15.524,35.291,15.115,35.478z" fill="#1d1d1b"/><path d="M12.683,35.386c-0.181,0.052-0.129,0.293,0.042,0.311c0.581,0.061,1.08,0.342,1.056,1.005   c-0.004,0.12,0.197,0.152,0.214,0.029C14.09,36.026,13.466,35.162,12.683,35.386z" fill="#1d1d1b"/><path d="M28.667,2.286c-0.472-0.307-1.08,0.032-1.163,0.556c-0.028,0.177,0.21,0.248,0.271,0.075   c0.124-0.35,0.597-0.509,0.781-0.112c0.079,0.171,0.005,0.322-0.021,0.491c-0.02,0.126,0.103,0.254,0.23,0.177   C29.189,3.214,29.041,2.53,28.667,2.286z" fill="#1d1d1b"/><path d="M28.54,4.408c-0.154,0.048-0.324,0.118-0.489,0.065c-0.338-0.108-0.382-0.516-0.162-0.763   c0.149-0.167-0.08-0.398-0.246-0.246c-0.845,0.772,0.385,2.058,1.056,1.217C28.792,4.564,28.711,4.354,28.54,4.408z" fill="#1d1d1b"/><path d="M25.857,3.63c-0.059-0.087-0.22-0.089-0.244,0.032c-0.07,0.348-0.191,0.779-0.671,0.695   c-0.21-0.037-0.302,0.264-0.09,0.325C25.412,4.843,26.27,4.236,25.857,3.63z" fill="#1d1d1b"/><path d="M25.175,5.808c-0.12,0.134,0.068,0.326,0.199,0.199c0.333-0.324,0.722-0.062,0.869,0.279   c0.064,0.148,0.317,0.074,0.305-0.082C26.496,5.542,25.588,5.347,25.175,5.808z" fill="#1d1d1b"/><path d="M15.776,15.465c-0.167,0.217-0.312,0.314-0.589,0.238c-0.296-0.081-0.42-0.299-0.328-0.623   c0.033-0.117-0.151-0.203-0.202-0.085c-0.448,1.02,1.12,1.621,1.399,0.589C16.104,15.403,15.876,15.335,15.776,15.465z" fill="#1d1d1b"/><path d="M13.637,14.281c-0.094,0.087,0.029,0.252,0.138,0.179c0.517-0.343,0.964,0.004,1.176,0.482   c0.064,0.145,0.278,0.061,0.282-0.076C15.255,14.088,14.137,13.816,13.637,14.281z" fill="#1d1d1b"/><path d="M16.559,13.44c-0.108,0.143-0.226,0.315-0.421,0.336c-0.127,0.08-0.221,0.039-0.283-0.122   c-0.23-0.139-0.209-0.297,0.065-0.473c0.129-0.038,0.073-0.217-0.054-0.197c-0.444,0.07-0.586,0.676-0.283,0.989   c0.409,0.423,1.106,0.067,1.253-0.417C16.889,13.38,16.656,13.311,16.559,13.44z" fill="#1d1d1b"/><path d="M14.615,10.794c-0.112-0.13-0.334,0.008-0.285,0.166c0.147,0.475-0.068,1.131-0.729,0.833   c-0.154-0.069-0.287,0.143-0.135,0.231C14.262,12.481,15.27,11.556,14.615,10.794z" fill="#1d1d1b"/><path d="M22.479,26.485c-0.23-0.466-0.93-0.498-1.233-0.08c-0.307,0.424-0.027,0.993,0.431,1.143   c0.119,0.039,0.205-0.154,0.087-0.206c-0.719-0.315-0.103-1.229,0.511-0.7C22.387,26.74,22.545,26.62,22.479,26.485z" fill="#1d1d1b"/><path d="M23.258,25.796c-0.108-0.06-0.24,0.062-0.173,0.173c0.314,0.518,0.321,1.304-0.384,1.5   c-0.146,0.041-0.083,0.25,0.062,0.224C23.553,27.548,24.079,26.251,23.258,25.796z" fill="#1d1d1b"/><path d="M21.499,23.975c-0.101-0.168-0.387-0.06-0.324,0.137c0.061,0.137,0.058,0.279-0.009,0.427   c-0.354,0.238-0.589,0.173-0.706-0.194c-0.028-0.103-0.204-0.087-0.193,0.026C20.375,25.51,22.069,24.918,21.499,23.975z" fill="#1d1d1b"/><path d="M9.888,23.955c-0.211,0.498-0.835,0.829-1.275,0.35c-0.111-0.12-0.276,0.054-0.177,0.177   c0.479,0.59,1.672,0.375,1.726-0.452C10.172,23.89,9.946,23.819,9.888,23.955z" fill="#1d1d1b"/><path d="M8.883,23.323c-0.054,0.171,0.202,0.234,0.264,0.073c0.228-0.592,0.832-0.381,1.045,0.063   c0.079,0.165,0.297,0.038,0.273-0.115C10.327,22.44,9.129,22.543,8.883,23.323z" fill="#1d1d1b"/><path d="M10.911,26.292c-0.216,0.089-0.496,0.148-0.707,0.004c-0.377-0.258-0.126-0.783,0.235-0.891   c0.186-0.056,0.108-0.323-0.079-0.288c-0.531,0.099-0.895,0.69-0.651,1.203c0.237,0.498,0.985,0.663,1.345,0.215   C11.132,26.438,11.062,26.23,10.911,26.292z" fill="#1d1d1b"/><path d="M39.694,22.92c-0.276-0.297-0.558-0.48-0.689-0.89c-0.129-0.404-0.097-0.819,0.095-1.197   c0.035-0.07,0.009-0.142-0.036-0.195c0.001-0.002,0.003-0.002,0.004-0.004c0.11-0.156-0.071-0.354-0.238-0.31   c-0.5,0.132-0.878,0.384-1.409,0.145c-0.465-0.209-0.731-0.649-0.797-1.142c-0.009-0.065-0.054-0.093-0.105-0.104   c-0.064-0.028-0.139-0.029-0.195,0.016c-0.293,0.234-0.319,0.672-0.578,0.953c-0.292,0.317-0.881,0.411-1.087-0.054   c-0.067-0.152-0.284-0.045-0.262,0.102c-0.142-0.197-0.496-0.079-0.435,0.203c0.148,0.678-0.19,1.329-0.822,1.606   c-0.028,0.012-0.038,0.035-0.051,0.055c-0.091,0.013-0.18,0.039-0.262,0.101c-0.092,0.069-0.113,0.211,0,0.276   c0.348,0.201,0.697,0.182,0.978,0.531c0.267,0.332,0.372,0.741,0.237,1.144c-0.051-0.001-0.101-0.007-0.152-0.002   c-0.196,0.019-0.334,0.312-0.113,0.416c0.363,0.17,0.744,0.236,1.091,0.457c0.374,0.238,0.724,0.583,0.968,0.956   c0.036,0.055,0.102,0.066,0.154,0.046c0.084,0.033,0.175,0.03,0.234-0.059c0.2-0.306,0.224-0.603,0.675-0.655   c0.452-0.052,0.86,0.271,1.182,0.544c0.062,0.053,0.128,0.05,0.186,0.029c0.111,0.058,0.28,0.019,0.3-0.119   c0.066-0.457-0.096-0.878,0.03-1.35c0.126-0.474,0.393-0.873,0.76-1.187c0.043,0.015,0.079,0.046,0.125,0.054   C39.692,23.321,39.85,23.087,39.694,22.92z M38.116,24.132c-0.108,0.3-0.179,0.724-0.137,1.105   c-0.39-0.326-0.866-0.562-1.381-0.414c-0.272,0.078-0.616,0.322-0.75,0.611c-0.321-0.57-0.87-1.101-1.5-1.243   c0.229-0.473,0.177-1.022-0.134-1.456c-0.132-0.184-0.361-0.399-0.614-0.528c0.656-0.335,1.028-1.085,0.862-1.825   c0.189,0.425,0.705,0.593,1.148,0.445c0.314-0.105,0.64-0.418,0.836-0.772c0.153,0.382,0.421,0.711,0.814,0.89   c0.393,0.179,0.932,0.21,1.353,0.031c-0.168,0.347-0.213,0.74-0.122,1.132c0.071,0.305,0.246,0.643,0.491,0.885   C38.585,23.27,38.285,23.665,38.116,24.132z" fill="#1d1d1b"/><path d="M35.01,10.101c-0.317-1.915-0.369-4.574-1.82-6.013c-0.082-0.081-0.18-0.06-0.239,0.003l-0.001,0   c-1.743,1.4-4.232,4.589-3.902,7.036c0.176,1.306,1.333,2.522,2.028,3.543c1.12,1.645,2.246,3.281,3.463,4.856   c0.095,0.124,0.298-0.036,0.215-0.166c-1.34-2.124-3.167-4.152-4.298-6.381c-1.75-3.449,0.406-6.117,2.532-8.578   c1.342,1.668,1.38,4.853,1.68,6.882c0.357,2.416,0.592,4.839,0.77,7.273c0.023,0.313,0.51,0.318,0.492,0   C35.769,15.724,35.473,12.901,35.01,10.101z" fill="#1d1d1b"/><path d="M36.529,3.124c-0.032-0.056-0.082-0.101-0.168-0.105c-1.899-0.086-0.923,2.873-0.802,3.931   c0.468,4.099,0.848,8.226,1.53,12.296c0.023,0.136,0.25,0.105,0.242-0.033c-0.088-1.44-1.896-14.611-1.08-15.689   c2.693,0.478,3.678,3.099,4.596,5.407c0.012,0.031,0.038,0.041,0.058,0.062c-1.229,3.334-2.027,6.84-2.743,10.313   c-0.065,0.315,0.41,0.451,0.485,0.134c0.812-3.451,1.758-6.888,2.446-10.367c0.123-0.011,0.232-0.101,0.185-0.259   C40.579,6.471,39.213,3.451,36.529,3.124z" fill="#1d1d1b"/><path d="M42.793,16.884c-0.179-1.335-0.215-2.886-1.164-3.913c-0.022-0.084-0.086-0.134-0.166-0.137   c-0.03-0.006-0.058-0.004-0.087,0.007c-0.002,0.001-0.004,0.001-0.005,0.002c-0.058,0.023-0.097,0.069-0.1,0.128   c-0.835,2.559-1.456,5.227-2.045,7.853c-0.04,0.181,0.223,0.254,0.278,0.077c0.755-2.433,1.497-4.916,2.041-7.41   c0.679,1.313,0.715,3.171,0.867,4.533c0.157,1.412,0.238,2.827,0.324,4.245c-0.859-0.101-1.917-0.242-2.735-0.03   c-0.207,0.054-0.208,0.367,0,0.42c0.827,0.21,1.896,0.059,2.757-0.047c0.001,0.024,0.003,0.047,0.004,0.071   c0.018,0.293,0.461,0.299,0.461,0C43.217,20.744,43.05,18.806,42.793,16.884z" fill="#1d1d1b"/><path d="M33.683,19.914c-1.622-2.098-3.463-4.124-5.316-6.021c-0.188-0.193-0.457,0.09-0.291,0.291   c0.027,0.033,0.056,0.066,0.084,0.099c-1.135,0.401-0.942,5.248-0.868,5.94c0.079,0.732,0.366,1.17,1.168,1.089   c0.509-0.051,0.993-0.322,1.486-0.448c0.978-0.251,1.941-0.274,2.942-0.241c0.255,0.008,0.324-0.418,0.062-0.456   c-0.744-0.108-1.479-0.112-2.225-0.003c-0.635,0.093-1.271,0.438-1.889,0.506c-1.439,0.157-1.04-1.614-1.009-2.495   c0.018-0.497-0.002-3.163,0.569-3.613c1.601,1.912,3.309,3.818,5.106,5.535C33.625,20.213,33.782,20.041,33.683,19.914z" fill="#1d1d1b"/><path d="M33.228,23.136c-1.112,0.132-2.211,0.332-3.307,0.561c-0.66,0.137-1.952,0.141-2.417,0.778   c-0.412,0.564-0.225,1.731-0.243,2.361c-0.039,1.34-0.042,2.681-0.036,4.021c0.001,0.131,0.11,0.24,0.241,0.241   c1.176,0.012,1.768-1.209,2.43-2.041c0.977-1.227,1.971-2.441,2.9-3.705c0.145-0.197-0.18-0.448-0.34-0.262   c-1.006,1.176-1.949,2.405-2.908,3.62c-0.256,0.323-0.735,1.146-1.081,1.367c-1.224,0.784-0.758-0.857-0.744-1.519   c0.016-0.748-0.033-1.557,0.078-2.297c0.009-0.191,0.019-0.383,0.028-0.574c0.079-0.821,0.462-1.236,1.152-1.245   c1.289-0.562,2.919-0.662,4.274-1.102C33.36,23.305,33.35,23.121,33.228,23.136z" fill="#1d1d1b"/><path d="M34.476,25.799c-0.35,2.452-0.62,4.916-0.905,7.376c-0.11,0.951-0.788,9.582-2.005,9.709   c-5.491-5.961,0.303-11.481,2.23-17.525c0.04-0.126-0.164-0.218-0.218-0.092c-2.611,6.038-8.171,12.27-2.088,18.188   c0.177,0.172,0.411-0.033,0.348-0.225c0.75,0.175,0.974-0.574,1.215-1.405c0.713-2.451,0.668-5.444,0.963-7.985   c0.308-2.659,0.638-5.319,0.875-7.985C34.911,25.621,34.51,25.564,34.476,25.799z" fill="#1d1d1b"/><path d="M38.198,26.871c-0.024-0.241-0.379-0.251-0.383,0c-0.041,2.398,1.009,4.358,1.828,6.56   c1.176,3.165,0.769,7.592-1.693,10.187c-1.481-0.287-2.104-1.028-1.847-2.236c0.024-0.458,0.048-0.917,0.073-1.375   c0.072-1.605,0.163-3.209,0.244-4.813c0.149-2.978,0.328-5.957,0.349-8.939c0.001-0.209-0.301-0.201-0.32,0   c-0.308,3.201-0.441,6.416-0.612,9.627c-0.107,2.008-0.932,5.324-0.177,7.311c0.521,1.37,1.987,2.093,2.944,0.745   c0.096-0.134-0.012-0.265-0.142-0.298c1.461-1.259,2.185-3.826,2.412-5.506C41.413,34.134,38.579,30.772,38.198,26.871z" fill="#1d1d1b"/><path d="M42.563,24.59c-0.425-1.526-1.535-0.279-2.491-0.294c-0.276-0.005-0.272,0.409,0,0.425   c0.342,0.02,0.391-0.103,0.715-0.119c0.265-0.254,0.537-0.222,0.814,0.095c0.44,0.025,0.61,0.211,0.509,0.559   c0.157,0.434-0.077,1.333-0.102,1.804c-0.031,0.601-0.053,1.203-0.088,1.804c-0.018,0.309,0.125,1.695-0.57,1.41   c-0.363-0.149-0.79-1.851-0.931-2.192c-0.383-0.922-0.749-1.85-1.139-2.769c-0.089-0.21-0.443-0.06-0.369,0.156   c0.365,1.08,0.783,2.143,1.213,3.199c0.207,0.508,0.494,1.728,0.93,2.135c0.643,0.601,1.143-0.008,1.308-0.695   c0.209-0.87,0.119-1.893,0.163-2.79C42.568,26.474,42.795,25.423,42.563,24.59z" fill="#1d1d1b"/></g></defs><g fi:class="KUsePattern"><pattern id="pattern_L1_5" width="350" height="350" patternUnits="userSpaceOnUse"><use xlink:href="#L1_5" x="-350" y="-350"/><use xlink:href="#L1_5" x="0" y="-350"/><use xlink:href="#L1_5" x="350" y="-350"/><use xlink:href="#L1_5" x="-350" y="0"/><use xlink:href="#L1_5" x="0" y="0"/><use xlink:href="#L1_5" x="350" y="0"/><use xlink:href="#L1_5" x="-350" y="350"/><use xlink:href="#L1_5" x="0" y="350"/><use xlink:href="#L1_5" x="350" y="350"/></pattern><rect x="0" y="0" width="100%" height="100%" fill="url(#pattern_L1_5)"/></g><g fi:class="KUsePattern"><pattern id="pattern_L1_6" width="350" height="350" patternUnits="userSpaceOnUse"><use xlink:href="#L1_6" x="-350" y="-350"/><use xlink:href="#L1_6" x="0" y="-350"/><use xlink:href="#L1_6" x="350" y="-350"/><use xlink:href="#L1_6" x="-350" y="0"/><use xlink:href="#L1_6" x="0" y="0"/><use xlink:href="#L1_6" x="350" y="0"/><use xlink:href="#L1_6" x="-350" y="350"/><use xlink:href="#L1_6" x="0" y="350"/><use xlink:href="#L1_6" x="350" y="350"/></pattern><rect x="0" y="0" width="100%" height="100%" fill="url(#pattern_L1_6)"/></g><g fi:class="KUsePattern"><pattern id="pattern_L1_8" width="350" height="350" patternUnits="userSpaceOnUse"><use xlink:href="#L1_8" x="-350" y="-350"/><use xlink:href="#L1_8" x="0" y="-350"/><use xlink:href="#L1_8" x="350" y="-350"/><use xlink:href="#L1_8" x="-350" y="0"/><use xlink:href="#L1_8" x="0" y="0"/><use xlink:href="#L1_8" x="350" y="0"/><use xlink:href="#L1_8" x="-350" y="350"/><use xlink:href="#L1_8" x="0" y="350"/><use xlink:href="#L1_8" x="350" y="350"/></pattern><rect x="0" y="0" width="100%" height="100%" fill="url(#pattern_L1_8)"/></g><g fi:class="KUsePattern"><pattern id="pattern_L1_9" width="350" height="350" patternUnits="userSpaceOnUse"><use xlink:href="#L1_9" x="-350" y="-350"/><use xlink:href="#L1_9" x="0" y="-350"/><use xlink:href="#L1_9" x="350" y="-350"/><use xlink:href="#L1_9" x="-350" y="0"/><use xlink:href="#L1_9" x="0" y="0"/><use xlink:href="#L1_9" x="350" y="0"/><use xlink:href="#L1_9" x="-350" y="350"/><use xlink:href="#L1_9" x="0" y="350"/><use xlink:href="#L1_9" x="350" y="350"/></pattern><rect x="0" y="0" width="100%" height="100%" fill="url(#pattern_L1_9)"/></g><g fi:class="KUsePattern"><pattern id="pattern_L1_10" width="350" height="350" patternUnits="userSpaceOnUse"><use xlink:href="#L1_10" x="-350" y="-350"/><use xlink:href="#L1_10" x="0" y="-350"/><use xlink:href="#L1_10" x="350" y="-350"/><use xlink:href="#L1_10" x="-350" y="0"/><use xlink:href="#L1_10" x="0" y="0"/><use xlink:href="#L1_10" x="350" y="0"/><use xlink:href="#L1_10" x="-350" y="350"/><use xlink:href="#L1_10" x="0" y="350"/><use xlink:href="#L1_10" x="350" y="350"/></pattern><rect x="0" y="0" width="100%" height="100%" fill="url(#pattern_L1_10)"/></g><g fi:class="KUsePattern" opacity="0.97"><pattern id="pattern_L1_12" width="350" height="350" patternUnits="userSpaceOnUse"><use xlink:href="#L1_12" x="-350" y="-350"/><use xlink:href="#L1_12" x="0" y="-350"/><use xlink:href="#L1_12" x="350" y="-350"/><use xlink:href="#L1_12" x="-350" y="0"/><use xlink:href="#L1_12" x="0" y="0"/><use xlink:href="#L1_12" x="350" y="0"/><use xlink:href="#L1_12" x="-350" y="350"/><use xlink:href="#L1_12" x="0" y="350"/><use xlink:href="#L1_12" x="350" y="350"/></pattern><rect x="0" y="0" width="100%" height="100%" fill="url(#pattern_L1_12)"/></g><g fi:class="KUsePattern"><pattern id="pattern_L1_13" width="350" height="350" patternUnits="userSpaceOnUse"><use xlink:href="#L1_13" x="-350" y="-350"/><use xlink:href="#L1_13" x="0" y="-350"/><use xlink:href="#L1_13" x="350" y="-350"/><use xlink:href="#L1_13" x="-350" y="0"/><use xlink:href="#L1_13" x="0" y="0"/><use xlink:href="#L1_13" x="350" y="0"/><use xlink:href="#L1_13" x="-350" y="350"/><use xlink:href="#L1_13" x="0" y="350"/><use xlink:href="#L1_13" x="350" y="350"/></pattern><rect x="0" y="0" width="100%" height="100%" fill="url(#pattern_L1_13)"/></g><g fi:class="KUsePattern"><pattern id="pattern_L1_14" width="350" height="350" patternUnits="userSpaceOnUse"><use xlink:href="#L1_14" x="-350" y="-350"/><use xlink:href="#L1_14" x="0" y="-350"/><use xlink:href="#L1_14" x="350" y="-350"/><use xlink:href="#L1_14" x="-350" y="0"/><use xlink:href="#L1_14" x="0" y="0"/><use xlink:href="#L1_14" x="350" y="0"/><use xlink:href="#L1_14" x="-350" y="350"/><use xlink:href="#L1_14" x="0" y="350"/><use xlink:href="#L1_14" x="350" y="350"/></pattern><rect x="0" y="0" width="100%" height="100%" fill="url(#pattern_L1_14)"/></g><g fi:class="KUsePattern"><pattern id="pattern_L1_15" width="350" height="350" patternUnits="userSpaceOnUse"><use xlink:href="#L1_15" x="-350" y="-350"/><use xlink:href="#L1_15" x="0" y="-350"/><use xlink:href="#L1_15" x="350" y="-350"/><use xlink:href="#L1_15" x="-350" y="0"/><use xlink:href="#L1_15" x="0" y="0"/><use xlink:href="#L1_15" x="350" y="0"/><use xlink:href="#L1_15" x="-350" y="350"/><use xlink:href="#L1_15" x="0" y="350"/><use xlink:href="#L1_15" x="350" y="350"/></pattern><rect x="0" y="0" width="100%" height="100%" fill="url(#pattern_L1_15)"/></g><g fi:class="KUsePattern"><pattern id="pattern_L1_16" width="350" height="350" patternUnits="userSpaceOnUse"><use xlink:href="#L1_16" x="-350" y="-350"/><use xlink:href="#L1_16" x="0" y="-350"/><use xlink:href="#L1_16" x="350" y="-350"/><use xlink:href="#L1_16" x="-350" y="0"/><use xlink:href="#L1_16" x="0" y="0"/><use xlink:href="#L1_16" x="350" y="0"/><use xlink:href="#L1_16" x="-350" y="350"/><use xlink:href="#L1_16" x="0" y="350"/><use xlink:href="#L1_16" x="350" y="350"/></pattern><rect x="0" y="0" width="100%" height="100%" fill="url(#pattern_L1_16)"/></g><g fi:class="KUsePattern" transform="matrix(1 0 0 1 20 20)"><pattern id="pattern_UNKNOWN" width="350" height="350" patternUnits="userSpaceOnUse"><use xlink:href="#UNKNOWN" x="-350" y="-350"/><use xlink:href="#UNKNOWN" x="0" y="-350"/><use xlink:href="#UNKNOWN" x="350" y="-350"/><use xlink:href="#UNKNOWN" x="-350" y="0"/><use xlink:href="#UNKNOWN" x="0" y="0"/><use xlink:href="#UNKNOWN" x="350" y="0"/><use xlink:href="#UNKNOWN" x="-350" y="350"/><use xlink:href="#UNKNOWN" x="0" y="350"/><use xlink:href="#UNKNOWN" x="350" y="350"/></pattern><rect x="0" y="0" width="100%" height="100%" fill="url(#pattern_UNKNOWN)"/></g><g fi:class="KUsePattern"><pattern id="pattern_L1_17" width="350" height="350" patternUnits="userSpaceOnUse"><use xlink:href="#L1_17" x="-350" y="-350"/><use xlink:href="#L1_17" x="0" y="-350"/><use xlink:href="#L1_17" x="350" y="-350"/><use xlink:href="#L1_17" x="-350" y="0"/><use xlink:href="#L1_17" x="0" y="0"/><use xlink:href="#L1_17" x="350" y="0"/><use xlink:href="#L1_17" x="-350" y="350"/><use xlink:href="#L1_17" x="0" y="350"/><use xlink:href="#L1_17" x="350" y="350"/></pattern><rect x="0" y="0" width="100%" height="100%" fill="url(#pattern_L1_17)"/></g><g fi:class="KUsePattern"><pattern id="pattern_L1_18" width="350" height="350" patternUnits="userSpaceOnUse"><use xlink:href="#L1_18" x="-350" y="-350"/><use xlink:href="#L1_18" x="0" y="-350"/><use xlink:href="#L1_18" x="350" y="-350"/><use xlink:href="#L1_18" x="-350" y="0"/><use xlink:href="#L1_18" x="0" y="0"/><use xlink:href="#L1_18" x="350" y="0"/><use xlink:href="#L1_18" x="-350" y="350"/><use xlink:href="#L1_18" x="0" y="350"/><use xlink:href="#L1_18" x="350" y="350"/></pattern><rect x="0" y="0" width="100%" height="100%" fill="url(#pattern_L1_18)"/></g><g fi:class="KUsePattern"><pattern id="pattern_L1_19" width="350" height="350" patternUnits="userSpaceOnUse"><use xlink:href="#L1_19" x="-350" y="-350"/><use xlink:href="#L1_19" x="0" y="-350"/><use xlink:href="#L1_19" x="350" y="-350"/><use xlink:href="#L1_19" x="-350" y="0"/><use xlink:href="#L1_19" x="0" y="0"/><use xlink:href="#L1_19" x="350" y="0"/><use xlink:href="#L1_19" x="-350" y="350"/><use xlink:href="#L1_19" x="0" y="350"/><use xlink:href="#L1_19" x="350" y="350"/></pattern><rect x="0" y="0" width="100%" height="100%" fill="url(#pattern_L1_19)"/></g></svg>