<svg xmlns="http://www.w3.org/2000/svg" xmlns:xlink="http://www.w3.org/1999/xlink" id="Capa_1" x="0" y="0" version="1.1" viewBox="0 0 511.47 511.47" xml:space="preserve" style="enable-background:new 0 0 511.47 511.47"><g><polygon style="fill:#fc6e51" points="77.456 188.851 7.868 232.384 24.776 244.251 83.286 210.606"/><polygon style="fill:#fc6e51" points="436.487 188.512 502.98 231.76 487.722 244.251 430.399 211.273"/></g><g><polygon style="fill:#f2b03b" points="407.985 294.881 430.399 211.273 487.722 244.251"/><polygon style="fill:#f2b03b" points="106.371 296.723 83.286 210.606 24.776 244.251"/></g><g><polygon style="fill:#82af48" points="147.848 323.087 106.371 296.723 44.033 64.093 147.848 36.212"/><rect style="fill:#82af48" width="215.78" height="383.6" x="147.846" y="7.991"/></g><polygon style="fill:#a0d468" points="347.641 391.594 163.832 391.594 163.832 47.95 179.811 23.975 331.658 23.975 347.641 47.95"/><path style="fill:#ffce54" d="M507.476,255.735v223.768c0,3.279-0.641,6.393-1.92,9.271l-2.006,3.754L317.75,375.61l-18.059-11.971	l72.721-46.125l50.511-32.131l78.56-49.866C505.236,241.987,507.476,249.183,507.476,255.735z"/><path style="fill:#f2b03b" d="M483.501,479.503l22.056,9.271c-3.599,8.633-12.145,14.705-22.056,14.705H27.972	c-12.386,0-22.618-9.514-23.815-21.58l23.815-2.396l183.142-115.48l-6.766-5.113l51.388,32.684l51.385-32.686l-7.43,4.73	L483.501,479.503z"/><path style="fill:#a0d468" d="M331.658,259.731c0,19.34-9.03,36.758-23.499,49.152c-3.356-8.875-10.146-25.178-14.142-25.178	h-9.748v-0.078c9.35-7.352,15.422-16.787,15.422-23.896c0-7.114-6.072-16.542-15.422-23.897v-0.078h9.748	c3.996,0,10.785-16.382,14.142-25.174C322.628,222.968,331.658,240.392,331.658,259.731z"/><path style="fill:#82af48" d="M308.159,308.883c-1.194,1.115-2.475,2.154-3.832,3.113c-13.189,9.748-30.133,15.664-48.591,15.664	c-41.956,0-75.921-30.445-75.921-67.93c0-37.481,33.965-67.93,75.921-67.93c20.3,0,38.843,7.114,52.423,18.781	c-3.356,8.792-10.146,25.174-14.142,25.174h-9.748v0.078c-8.554-6.872-19.901-12.066-31.729-12.066h-0.8	c-36.763-5.674-39.798,13.986-39.798,13.986s-3.676,8.952-8.152-1.998c0,0-13.825,65.69,47.951,59.938h0.8	c11.828,0,23.175-5.199,31.729-12.066v0.078h9.748C298.013,283.706,304.802,300.008,308.159,308.883z"/><g><path style="fill:#a0d468" d="M284.269,235.834c9.35,7.356,15.422,16.784,15.422,23.897c0,7.109-6.072,16.545-15.422,23.896 c-8.554,6.867-19.901,12.066-31.729,12.066h-0.8l-23.097-12.145c0,0,5.596-9.115,5.596-23.662c0-14.622-5.596-23.972-5.596-23.972 l23.097-12.148h0.8C264.368,223.768,275.715,228.962,284.269,235.834z"/><path style="fill:#a0d468" d="M251.74,223.768l-23.097,12.148c0,0,5.596,9.35,5.596,23.972c0,14.547-5.596,23.662-5.596,23.662 l23.097,12.145c-61.776,5.752-47.951-59.938-47.951-59.938c4.476,10.949,8.152,1.998,8.152,1.998S214.978,218.094,251.74,223.768z"/></g><path style="fill:#ffce54" d="M211.114,364.022l-17.392,11.588L7.93,492.528l-3.773-10.629c-0.082-0.797-0.16-1.6-0.16-2.396	V255.735c0-6.474,2.318-13.748,5.994-20.217l80.315,50.983l48.75,31.014L211.114,364.022z"/><g style="opacity:.2"><path d="M501.482,235.518l-12.394,7.867c1.49,4.152,2.403,8.367,2.403,12.351v223.768c0,3.279-0.64,6.393-1.92,9.271 c-0.53,1.273-1.201,2.475-1.936,3.621l-0.07,0.133l-0.016-0.008c-4.261,6.58-11.636,10.959-20.033,10.959h15.983 c8.397,0,15.772-4.379,20.034-10.959l0.016,0.008l0.07-0.133c0.733-1.146,1.404-2.348,1.936-3.621 c1.279-2.879,1.92-5.992,1.92-9.271V255.735C507.476,249.183,505.236,241.987,501.482,235.518z"/></g><g style="opacity:.3"><path style="fill:#fff" d="M23.968,492.497l-0.055,0.031l-0.102-0.279c-1.947-3.068-3.293-6.557-3.672-10.35 c-0.082-0.797-0.16-1.6-0.16-2.396V255.735c0-3.937,0.937-8.164,2.435-12.331L9.99,235.518c-3.676,6.47-5.994,13.743-5.994,20.217 v223.768c0,0.797,0.078,1.6,0.16,2.396c0.378,3.793,1.725,7.281,3.672,10.35l0.102,0.279l0.055-0.031 c4.276,6.564,11.597,10.982,19.987,10.982h15.984C35.566,503.479,28.245,499.061,23.968,492.497z"/></g><polygon style="fill:#a0d468" points="147.848 323.087 126.565 309.561 68.929 95.183 79.118 71.285 147.848 52.82"/><polygon style="fill:#82af48" points="366.02 323.087 407.493 296.723 469.835 64.093 366.02 36.212"/><polygon style="fill:#a0d468" points="363.625 323.087 387.482 308.883 444.939 95.183 434.746 71.285 363.625 52.113"/><g style="opacity:.2"><polygon points="307.121 358.909 299.691 363.639 363.625 323.087 363.625 323.087 363.656 323.063 372.412 317.514 407.985 294.881 413.151 275.612 255.736 375.61 101.205 277.446 106.371 296.723 113.173 301.047 126.565 309.561 147.848 323.087 147.848 323.188 211.114 364.022 204.348 358.909 255.736 391.594"/></g><g style="opacity:.3"><path style="fill:#fff" d="M302.001,274.215h-9.607c-2.294,2.764-5.01,5.463-8.132,7.914v0.078h9.748 c3.996,0,10.793,16.232,14.149,25.1c2.903-2.475,5.525-5.207,7.96-8.062C312.756,290.364,305.989,274.215,302.001,274.215z"/></g><g style="opacity:.2"><path d="M302.001,242.253h-9.607c-2.294-2.755-5.01-5.456-8.132-7.914v-0.078h9.748c3.996,0,10.793-16.225,14.149-25.091 c2.903,2.474,5.525,5.205,7.96,8.062C312.756,226.113,305.989,242.253,302.001,242.253z"/></g><g style="opacity:.2"><path d="M213.776,231.858v8.046c2.692-4.331,9.186-10.364,24.63-10.622l13.33-7.008 C226.489,218.379,217.147,226.425,213.776,231.858z"/></g><g style="opacity:.2"><path style="fill:#fff" d="M202.588,244.594c-0.968,18.274,2.935,53.979,49.148,49.61l-15.953-8.391 C209.452,281.989,203.291,260.714,202.588,244.594z"/></g><g style="opacity:.2"><path d="M228.639,234.417c0,0,1.405,2.349,2.806,6.517l20.291-10.669h0.8c11.832,0,23.171,5.198,31.725,12.066 c7.695,6.048,13.096,13.486,14.797,19.896c0.375-1.373,0.625-2.727,0.625-3.99c0-7.111-6.072-16.546-15.422-23.898 c-8.554-6.868-19.894-12.065-31.725-12.065h-0.8L228.639,234.417z"/></g><g style="opacity:.3"><path style="fill:#fff" d="M284.261,274.137c-8.554,6.869-19.894,12.074-31.725,12.074h-0.8l-20.264-10.654 c-1.409,4.168-2.833,6.494-2.833,6.494l23.097,12.153h0.8c11.832,0,23.171-5.199,31.725-12.074 c9.35-7.352,15.422-16.779,15.422-23.893c0-1.266-0.25-2.615-0.625-3.997C297.357,260.651,291.957,268.096,284.261,274.137z"/></g><g><path style="fill:#3a3847" d="M212.02,155.838c-2.205,0-4.035-1.787-4.035-3.996s1.748-3.996,3.957-3.996h0.078 c2.208,0,3.996,1.787,3.996,3.996S214.228,155.838,212.02,155.838z"/><path style="fill:#3a3847" d="M212.02,139.855c-2.205,0-4.035-1.787-4.035-3.996s1.748-3.996,3.957-3.996h0.078 c2.208,0,3.996,1.787,3.996,3.996S214.228,139.855,212.02,139.855z"/><path style="fill:#3a3847" d="M212.02,123.871c-2.205,0-4.035-1.787-4.035-3.996s1.748-3.996,3.957-3.996h0.078 c2.208,0,3.996,1.787,3.996,3.996S214.228,123.871,212.02,123.871z"/><path style="fill:#3a3847" d="M212.02,107.888c-2.205,0-4.035-1.787-4.035-3.996s1.748-3.996,3.957-3.996h0.078 c2.208,0,3.996,1.787,3.996,3.996S214.228,107.888,212.02,107.888z"/><path style="fill:#3a3847" d="M212.02,91.904c-2.205,0-4.035-1.787-4.035-3.996c0-2.208,1.748-3.996,3.957-3.996h0.078 c2.208,0,3.996,1.788,3.996,3.996C216.015,90.117,214.228,91.904,212.02,91.904z"/><path style="fill:#3a3847" d="M212.02,75.921c-2.205,0-4.035-1.787-4.035-3.996c0-2.208,1.748-3.996,3.957-3.996h0.078 c2.208,0,3.996,1.788,3.996,3.996C216.015,74.134,214.228,75.921,212.02,75.921z"/><path style="fill:#3a3847" d="M347.641,315.673c-2.209,0-3.996-1.787-3.996-3.996V43.552c-7.82-1.592-13.985-7.765-15.585-15.581 H183.409c-1.592,7.816-7.766,13.989-15.582,15.581v268.125c0,2.209-1.788,3.996-3.996,3.996c-2.209,0-3.996-1.787-3.996-3.996 V39.958c0-2.208,1.787-3.996,3.996-3.996c6.61,0,11.987-5.377,11.987-11.988c0-2.208,1.787-3.996,3.996-3.996h151.843 c2.209,0,3.996,1.788,3.996,3.996c0,6.61,5.377,11.988,11.987,11.988c2.208,0,3.995,1.787,3.995,3.996v271.718 C351.636,313.885,349.849,315.673,347.641,315.673z"/><path style="fill:#3a3847" d="M363.625,307.68c-2.209,0-3.996-1.787-3.996-3.994V11.987H151.843v291.699 c0,2.207-1.787,3.994-3.996,3.994s-3.996-1.787-3.996-3.994V7.991c0-2.208,1.787-3.996,3.996-3.996h215.777 c2.209,0,3.996,1.788,3.996,3.996v295.695C367.621,305.893,365.834,307.68,363.625,307.68z"/><path style="fill:#3a3847" d="M252.54,299.69c-2.208,0-3.996-1.787-3.996-3.996s1.787-3.996,3.996-3.996 c9.72,0,20.374-4.074,29.224-11.184c8.218-6.463,13.931-14.992,13.931-20.783c0-5.877-5.588-14.216-13.9-20.756 c-8.873-7.133-19.53-11.211-29.254-11.211c-2.208,0-3.996-1.787-3.996-3.996c0-2.208,1.787-3.996,3.996-3.996 c11.679,0,23.838,4.597,34.234,12.948c10.419,8.198,16.913,18.559,16.913,27.011c0,8.459-6.494,18.816-16.952,27.033 C276.371,295.092,264.219,299.69,252.54,299.69z"/><path style="fill:#3a3847" d="M294.017,239.752c-2.209,0-3.996-1.788-3.996-3.996c0-1.943,1.381-3.559,3.223-3.922 c1.405-1.21,5.269-7.192,11.184-22.676c0.789-2.064,3.114-3.091,5.159-2.311c2.061,0.789,3.091,3.099,2.303,5.159 C301.298,239.752,296.741,239.752,294.017,239.752z"/><path style="fill:#3a3847" d="M294.017,239.752h-9.748c-2.209,0-3.996-1.788-3.996-3.996c0-2.209,1.787-3.996,3.996-3.996h9.748 c2.208,0,3.996,1.787,3.996,3.996C298.013,237.964,296.225,239.752,294.017,239.752z"/><path style="fill:#3a3847" d="M308.159,312.88c-1.616,0-3.13-0.984-3.739-2.584c-5.455-14.414-9.56-21.307-11.168-22.664 c-1.842-0.359-3.23-1.982-3.23-3.926c0-2.209,1.787-3.996,3.996-3.996c2.583,0,7.383,0,17.88,27.762 c0.78,2.059-0.258,4.369-2.326,5.15C309.103,312.794,308.627,312.88,308.159,312.88z"/><path style="fill:#3a3847" d="M294.017,287.702h-9.748c-2.209,0-3.996-1.787-3.996-3.996s1.787-3.996,3.996-3.996h9.748 c2.208,0,3.996,1.787,3.996,3.996S296.225,287.702,294.017,287.702z"/><path style="fill:#3a3847" d="M255.736,331.657c-44.067,0-79.917-32.264-79.917-71.926c0-39.659,35.85-71.926,79.917-71.926 c20.666,0,40.209,7.012,55.029,19.745c16.046,13.74,24.889,32.271,24.889,52.181c0,19.9-8.843,38.436-24.896,52.188 c-1.194,1.125-2.614,2.279-4.121,3.34C292.355,325.819,274.248,331.657,255.736,331.657z M255.736,195.797 c-39.658,0-71.925,28.681-71.925,63.934c0,35.252,32.267,63.934,71.925,63.934c16.818,0,33.231-5.283,46.218-14.883 c1.272-0.906,2.412-1.826,3.474-2.818c14.383-12.322,22.234-28.703,22.234-46.232c0-17.537-7.852-33.915-22.102-46.113 C292.183,202.122,274.49,195.797,255.736,195.797z"/><path style="fill:#3a3847" d="M244.365,300.047c0,0-0.004,0-0.008,0c-15.647-0.008-27.577-4.932-35.455-14.641 c-15.418-19.004-9.291-49.199-9.022-50.475c0.363-1.717,1.803-2.997,3.551-3.157c1.83-0.145,3.391,0.851,4.058,2.47 c0.289,0.703,0.551,1.261,0.781,1.698c1.174-4.117,6.813-17.197,31.108-17.197c3.988,0,8.351,0.358,12.971,1.073 c1.705,0.261,3.047,1.588,3.332,3.29c0.285,1.701-0.554,3.395-2.08,4.195l-19.687,10.353c1.819,4.327,4.32,12.116,4.32,22.231 c0,10.004-2.474,17.66-4.297,21.93l19.664,10.342c1.565,0.818,2.404,2.574,2.056,4.314c-0.343,1.732-1.787,3.037-3.547,3.201 C249.387,299.924,246.816,300.047,244.365,300.047z M206.674,244.953c-0.647,9.475-0.094,24.93,8.452,35.444 c4.632,5.697,11.184,9.326,19.554,10.84l-7.898-4.152c-0.976-0.514-1.697-1.412-1.99-2.473c-0.293-1.07-0.133-2.209,0.445-3.154 c0.043-0.07,5.006-8.459,5.006-21.57c0-13.217-4.987-21.845-5.038-21.931c-0.554-0.944-0.703-2.076-0.402-3.129 c0.301-1.05,1.015-1.939,1.979-2.447l10.668-5.611c-19.261,0.66-21.482,11.195-21.571,11.656c-0.051,0.269-0.137,0.597-0.242,0.847 c-0.406,0.991-2.666,5.924-7.254,5.924C207.778,245.195,207.209,245.11,206.674,244.953z"/><path style="fill:#3a3847" d="M299.691,163.83c-2.209,0-3.996-1.787-3.996-3.996v-95.9c0-2.209,1.787-3.996,3.996-3.996 c2.208,0,3.996,1.787,3.996,3.996v95.9C303.687,162.043,301.899,163.83,299.691,163.83z"/><path style="fill:#3a3847" d="M275.715,155.838h-39.958c-2.208,0-3.996-1.787-3.996-3.996s1.787-3.996,3.996-3.996h39.958 c2.209,0,3.996,1.787,3.996,3.996S277.924,155.838,275.715,155.838z"/><path style="fill:#3a3847" d="M263.728,131.863h-15.983c-8.815,0-15.983-7.169-15.983-15.983c0-8.815,7.168-15.983,15.983-15.983 h15.983c8.811,0,15.983,7.168,15.983,15.983C279.712,124.694,272.539,131.863,263.728,131.863z M247.745,107.888 c-4.406,0-7.992,3.586-7.992,7.992c0,4.405,3.586,7.991,7.992,7.991h15.983c4.409,0,7.991-3.586,7.991-7.991 c0-4.406-3.582-7.992-7.991-7.992H247.745z"/><path style="fill:#3a3847" d="M263.728,91.904h-15.983c-8.815,0-15.983-7.168-15.983-15.983s7.168-15.983,15.983-15.983h15.983 c8.811,0,15.983,7.168,15.983,15.983C279.712,84.736,272.539,91.904,263.728,91.904z M247.745,67.929 c-4.406,0-7.992,3.586-7.992,7.992s3.586,7.992,7.992,7.992h15.983c4.409,0,7.991-3.586,7.991-7.992 c0-4.405-3.582-7.992-7.991-7.992H247.745z"/><path style="fill:#3a3847" d="M243.749,163.83c-1.022,0-2.045-0.391-2.825-1.171l-7.992-7.992c-1.561-1.561-1.561-4.089,0-5.65 s4.089-1.561,5.65,0l7.992,7.992c1.561,1.561,1.561,4.09,0,5.65C245.794,163.44,244.771,163.83,243.749,163.83z"/><path style="fill:#3a3847" d="M275.715,163.83c-2.208,0-3.996-1.787-3.996-3.996v-15.983c0-2.208,1.788-3.996,3.996-3.996 c2.209,0,3.996,1.788,3.996,3.996v15.983C279.712,162.043,277.924,163.83,275.715,163.83z"/><path style="fill:#3a3847" d="M118.355,283.706c-1.764,0-3.379-1.178-3.855-2.965L63.911,91.901 c-0.57-2.126,0.687-4.315,2.813-4.89c6.373-1.729,10.201-8.331,8.526-14.715c-0.554-2.123,0.71-4.3,2.833-4.87l52.746-14.146 c2.138-0.573,4.32,0.69,4.894,2.825c0.574,2.131-0.695,4.324-2.825,4.894L83.606,74.22c0.44,7.945-3.934,15.503-11.048,19.074 l49.66,185.386c0.569,2.131-0.695,4.314-2.825,4.893C119.046,283.659,118.698,283.706,118.355,283.706z"/><path style="fill:#3a3847" d="M99.656,275.714c-1.764,0-3.38-1.178-3.855-2.957L40.174,65.128 c-0.273-1.022-0.133-2.115,0.397-3.032c0.531-0.917,1.405-1.588,2.428-1.861l87.827-23.496c2.119-0.554,4.324,0.687,4.897,2.821 c0.574,2.13-0.687,4.324-2.821,4.897L48.927,66.923l54.592,203.766c0.57,2.131-0.695,4.316-2.825,4.893 C100.346,275.667,99.999,275.714,99.656,275.714z"/><path style="fill:#3a3847" d="M25.431,225.396c-1.33,0-2.634-0.664-3.391-1.877c-1.171-1.869-0.605-4.335,1.268-5.506 l34.511-21.607c1.857-1.182,4.332-0.612,5.506,1.269c1.171,1.869,0.605,4.335-1.268,5.506l-34.511,21.606 C26.887,225.2,26.157,225.396,25.431,225.396z"/><path style="fill:#3a3847" d="M47.717,235.756c-1.386,0-2.732-0.722-3.469-2.01c-1.101-1.912-0.437-4.355,1.479-5.452 l20.217-11.589c1.904-1.101,4.351-0.434,5.451,1.479c1.101,1.912,0.437,4.355-1.479,5.452l-20.217,11.589 C49.075,235.584,48.392,235.756,47.717,235.756z"/><path style="fill:#3a3847" d="M395.513,283.706c-0.344,0-0.687-0.047-1.03-0.133c-2.138-0.578-3.402-2.762-2.833-4.893 l49.668-185.382c-7.142-3.579-11.496-11.137-10.997-19.086l-49.347-13.213c-2.139-0.57-3.403-2.763-2.834-4.894 c0.586-2.131,2.787-3.395,4.894-2.825l52.828,14.146c1.03,0.273,1.904,0.944,2.436,1.865c0.53,0.921,0.671,2.014,0.39,3.04 c-0.843,3.102-0.429,6.329,1.163,9.088c1.593,2.763,4.184,4.749,7.297,5.592c2.123,0.574,3.388,2.763,2.817,4.89l-50.588,188.84 C398.892,282.528,397.277,283.706,395.513,283.706z"/><path style="fill:#3a3847" d="M414.213,275.714c-0.344,0-0.687-0.047-1.03-0.133c-2.138-0.576-3.402-2.762-2.833-4.893 l54.592-203.77l-83.967-22.461c-2.131-0.57-3.403-2.759-2.834-4.894c0.578-2.123,2.74-3.418,4.894-2.825l87.83,23.497 c1.03,0.273,1.904,0.944,2.428,1.861c0.53,0.921,0.679,2.009,0.397,3.036l-55.614,207.617 C417.592,274.536,415.976,275.714,414.213,275.714z"/><path style="fill:#3a3847" d="M489.096,226.726c-0.749,0-1.507-0.21-2.186-0.647l-35.167-22.938 c-1.85-1.206-2.364-3.684-1.162-5.529c1.209-1.85,3.676-2.361,5.533-1.167l35.166,22.938c1.85,1.206,2.365,3.684,1.163,5.529 C491.679,226.086,490.4,226.726,489.096,226.726z"/><path style="fill:#3a3847" d="M466.159,235.756c-0.679,0-1.358-0.172-1.99-0.531l-20.221-11.59 c-1.912-1.096-2.575-3.54-1.476-5.452c1.093-1.924,3.535-2.579,5.455-1.479l20.222,11.589c1.912,1.097,2.575,3.54,1.476,5.452 C468.89,235.034,467.541,235.756,466.159,235.756z"/><path style="fill:#3a3847" d="M483.501,507.475c-2.209,0-3.996-1.789-3.996-3.996c0-2.209,1.787-3.996,3.996-3.996 c8.054,0,15.265-4.809,18.363-12.246c1.085-2.434,1.616-5.01,1.616-7.734V255.735c0-5.658-1.92-12.093-5.409-18.129 c-0.015-0.027-0.03-0.051-0.046-0.078c-1.086-1.588-0.891-3.773,0.546-5.147c1.592-1.51,4.12-1.467,5.65,0.141 c0.195,0.203,0.397,0.484,0.569,0.757c0.055,0.078,0.102,0.156,0.148,0.234c4.215,7.262,6.532,15.152,6.532,22.223v223.768 c0,3.848-0.765,7.516-2.263,10.896C504.9,500.739,494.794,507.475,483.501,507.475z"/><path style="fill:#3a3847" d="M27.972,507.475c-14.419,0-26.368-10.826-27.792-25.178C0.086,481.375,0,480.432,0,479.502V255.735 c0-6.915,2.314-14.797,6.517-22.192c1.081-1.92,3.513-2.595,5.448-1.499c1.92,1.089,2.591,3.528,1.499,5.448 c-3.477,6.118-5.471,12.768-5.471,18.243v223.768c0,0.664,0.07,1.328,0.141,1.99c0.999,10.092,9.716,17.99,19.839,17.99 c2.208,0,3.996,1.787,3.996,3.996C31.968,505.686,30.18,507.475,27.972,507.475z"/><path style="fill:#3a3847" d="M255.732,395.59c-0.733,0-1.475-0.203-2.142-0.625L7.848,238.893 c-1.861-1.186-2.416-3.652-1.233-5.518c1.19-1.857,3.653-2.411,5.518-1.233l245.75,156.081c1.861,1.186,2.412,3.652,1.226,5.518 C258.347,394.934,257.055,395.59,255.732,395.59z"/><path style="fill:#3a3847" d="M255.74,395.59c-1.323,0-2.614-0.656-3.375-1.85c-1.187-1.865-0.636-4.332,1.225-5.518 l245.753-156.081c1.857-1.186,4.332-0.632,5.51,1.233c1.187,1.865,0.633,4.332-1.232,5.518L257.882,394.965 C257.215,395.387,256.474,395.59,255.74,395.59z"/><path style="fill:#3a3847" d="M483.501,483.499c-0.726,0-1.46-0.195-2.123-0.607l-165.75-103.893 c-1.873-1.172-2.436-3.637-1.265-5.51c1.171-1.865,3.645-2.428,5.51-1.266l165.75,103.893c1.873,1.172,2.436,3.637,1.265,5.51 C486.131,482.837,484.828,483.499,483.501,483.499z"/><path style="fill:#3a3847" d="M27.976,483.499c-1.331,0-2.63-0.662-3.392-1.873c-1.17-1.873-0.604-4.338,1.265-5.51 l165.75-103.893c1.861-1.17,4.332-0.607,5.51,1.266c1.171,1.873,0.605,4.338-1.264,5.51L30.095,482.891 C29.435,483.303,28.702,483.499,27.976,483.499z"/><path style="fill:#3a3847" d="M483.501,507.475H27.972c-2.209,0-3.996-1.789-3.996-3.996c0-2.209,1.787-3.996,3.996-3.996H483.5 c2.208,0,3.995,1.787,3.995,3.996C487.496,505.686,485.709,507.475,483.501,507.475z"/></g></svg>