<svg xmlns="http://www.w3.org/2000/svg" xmlns:xlink="http://www.w3.org/1999/xlink" id="Capa_1" x="0" y="0" version="1.1" viewBox="0 0 511.424 511.424" xml:space="preserve" style="enable-background:new 0 0 511.424 511.424"><polygon style="fill:#fcd770" points="79.712 50.512 15.712 138.512 47.712 138.512 47.712 290.512 111.712 290.512 111.712 138.512 143.712 138.512"/><polygon style="fill:#ffc729" points="111.712 290.512 111.712 138.512 143.712 138.512 79.712 50.512 79.712 290.512"/><polygon style="fill:#fcd770" points="431.712 50.512 367.712 138.512 399.712 138.512 399.712 290.512 463.712 290.512 463.712 138.512 495.712 138.512"/><path style="fill:#fb5968" d="M255.712,170.512c-106.04,0-192,85.96-192,192c0,53.144,21.592,101.232,56.48,136h271.04	c34.888-34.768,56.48-82.856,56.48-136C447.712,256.472,361.752,170.512,255.712,170.512z"/><path style="fill:#ececec" d="M255.712,226.512c-75.112,0-136,60.888-136,136c0,16.92,3.232,33.056,8.88,48h254.24	c5.648-14.944,8.88-31.08,8.88-48C391.712,287.4,330.824,226.512,255.712,226.512z"/><path style="fill:#b6c1ce" d="M120.792,378.512c1.352,11.12,3.96,21.848,7.8,32h254.24c3.832-10.152,6.448-20.88,7.8-32H120.792z"/><circle style="fill:#fcd770" cx="255.712" cy="362.512" r="24"/><path style="fill:#cd2c5a" d="M89.472,458.512c8.488,14.656,18.808,28.12,30.728,40h271.032c11.92-11.88,22.24-25.344,30.728-40	H89.472z"/><polygon style="fill:#fcd770" points="255.712 18.512 191.712 106.512 223.712 106.512 223.712 178.512 287.712 178.512 287.712 106.512 319.712 106.512"/><g><polygon style="fill:#ffc729" points="463.712 290.512 463.712 138.512 495.712 138.512 431.712 50.512 431.712 290.512"/><polygon style="fill:#ffc729" points="287.712 178.512 287.712 106.512 319.712 106.512 255.712 18.512 255.712 178.512"/></g><path d="M271.864,335.048c-4.76-2.816-10.24-4.536-16.152-4.536c-17.648,0-32,14.352-32,32s14.352,32,32,32s32-14.352,32-32	c0-5.92-1.728-11.392-4.536-16.152l66.192-66.184l-11.312-11.312L271.864,335.048z M255.712,378.512c-8.824,0-16-7.176-16-16	s7.176-16,16-16s16,7.176,16,16S264.536,378.512,255.712,378.512z"/><rect width="160" height="16" x="175.712" y="426.512"/><rect width="96" height="16" x="207.712" y="458.512"/><path d="M255.712,162.512c-110.28,0-200,89.72-200,200c0,53.544,20.896,103.856,58.832,141.664l2.344,2.336h277.64l2.344-2.336	c37.944-37.808,58.84-88.12,58.84-141.664C455.712,252.232,365.992,162.512,255.712,162.512z M387.88,490.512H123.544	c-33.448-34.504-51.832-79.832-51.832-128c0-101.464,82.544-184,184-184s184,82.536,184,184	C439.712,410.68,421.328,456.008,387.88,490.512z"/><polygon points="215.712 146.512 231.712 146.512 231.712 98.512 207.424 98.512 255.712 32.112 304 98.512 279.712 98.512 279.712 146.512 295.712 146.512 295.712 114.512 335.424 114.512 255.712 4.912 176 114.512 215.712 114.512"/><polygon points="431.712 36.912 352 146.512 391.712 146.512 391.712 170.512 407.712 170.512 407.712 130.512 383.424 130.512 431.712 64.112 480 130.512 455.712 130.512 455.712 258.512 471.712 258.512 471.712 146.512 511.424 146.512"/><polygon points="39.712 258.512 55.712 258.512 55.712 130.512 31.424 130.512 79.712 64.112 128 130.512 103.712 130.512 103.712 170.512 119.712 170.512 119.712 146.512 159.424 146.512 79.712 36.912 0 146.512 39.712 146.512"/><rect width="16" height="16" x="39.712" y="274.512"/><rect width="16" height="16" x="103.712" y="186.512"/><rect width="16" height="16" x="391.712" y="186.512"/><rect width="16" height="16" x="455.712" y="274.512"/><rect width="16" height="16" x="319.712" y="458.512"/><rect width="16" height="16" x="175.712" y="458.512"/><path d="M255.712,194.512c-92.64,0-168,75.368-168,168c0,36.544,11.696,71.416,33.832,100.816l12.784-9.624	c-20.032-26.608-30.616-58.136-30.616-91.192c0-83.816,68.184-152,152-152s152,68.184,152,152c0,33.056-10.584,64.584-30.608,91.184	l12.784,9.624c22.128-29.392,33.824-64.264,33.824-100.808C423.712,269.88,348.352,194.512,255.712,194.512z"/></svg>