<?xml version="1.0" encoding="iso-8859-1"?>
<!-- Generator: Adobe Illustrator 19.0.0, SVG Export Plug-In . SVG Version: 6.00 Build 0)  -->
<svg version="1.1" id="Capa_1" xmlns="http://www.w3.org/2000/svg" xmlns:xlink="http://www.w3.org/1999/xlink" x="0px" y="0px"
	 viewBox="0 0 512 512" style="enable-background:new 0 0 512 512;" xml:space="preserve">
<path style="fill:#FD3018;" d="M194.96,180.97c-4.26-5.66-9.3-10.7-14.96-14.96c-7.13-5.37-15.23-9.49-24-12.04
	c-6.67-1.96-13.71-3-21-3c-6.62,0-12.45,4.34-14.36,10.66l-5.83,19.34l-27.62,91.54l-2.84,9.42c-1.48,4.89-0.37,10.21,2.95,14.09
	c3.33,3.88,8.35,5.83,13.48,5.1c0.94-0.14,1.89-0.15,2.83-0.15c42.8,0.01,76.39,33.18,76.39,75c0,8.29,6.71,15,15,15s15-6.71,15-15
	v-150C210,209.1,204.4,193.52,194.96,180.97z"/>
<path style="fill:#59422D;" d="M436,390.97H316c-8.29,0-15,6.71-15,15c0,5.13,0.52,10.15,1.51,15c6.96,34.19,37.27,60,73.49,60
	s66.53-25.81,73.49-60c0.99-4.85,1.51-9.87,1.51-15C451,397.68,444.29,390.97,436,390.97z"/>
<path style="fill:#C5C9F7;" d="M376,450.97c-19.556,0-36.24-12.539-42.437-30h84.873C412.24,438.431,395.556,450.97,376,450.97z"/>
<path style="fill:#664B34;" d="M240,165.97c0,8.291-6.709,15-15,15h-60c-8.291,0-15-6.709-15-15s6.709-15,15-15h60
	C233.291,150.97,240,157.679,240,165.97z"/>
<path d="M406,360.97h-30c-8.291,0-15-6.709-15-15s6.709-15,15-15h30c8.291,0,15,6.709,15,15S414.291,360.97,406,360.97z"/>
<path style="fill:#59422D;" d="M421,210.97H316c-24.81,0-45,20.19-45,45v28l31,17h119c14.39,0,27.23-6.8,35.48-17.35
	c5.96-7.63,9.52-17.24,9.52-27.65C466,231.16,445.81,210.97,421,210.97z"/>
<path style="fill:#FD4E26;" d="M508.9,365.17c-7.2-28.2-18.3-50.7-33.6-66.6c-0.36-0.38-0.71-0.75-1.08-1.11
	c-2.53-2.57-5.18-4.92-7.95-7.1c-0.64-0.49-1.28-0.98-1.93-1.46c-0.29-0.22-0.58-0.43-0.87-0.64c-0.57-0.42-1.16-0.83-1.75-1.24
	c-0.08-0.06-0.17-0.12-0.26-0.18c-0.8-0.55-1.61-1.09-2.43-1.62c-0.02-0.02-0.05-0.03-0.07-0.05c-0.82-0.52-1.64-1.04-2.48-1.55
	c-0.03-0.02-0.05-0.03-0.08-0.05H271v2.4c0,3.32,1.08,6.4,2.91,8.88c0,0,0,0.01,0.01,0.01c0.684,0.766,1.51,1.502,2.77,2.86
	c0.02,0.02,0.03,0.03,0.05,0.05c1.14,1.22,2.23,2.48,3.28,3.77c2.73,3.398,5.061,6.87,6.95,10.3c0.583,1,1.938,3.56,3.27,6.65
	c3.584,8.486,5.66,17.481,5.66,27.48c0,16.8-6.3,32.4-16.8,45H210v-15c0-57.9-47.1-105-105-105c-2.7,0-5.7,0-7.2,0.3
	c-3.59,0.24-7.13,0.65-10.61,1.24C37.47,280.91,0,324.38,0,375.97v28l30,2c0-24.9,20.1-45,45-45s45,20.1,45,45c0,8.4,6.6,15,15,15
	h330.1c14.1,0,27-6.3,35.7-17.4C509.2,392.47,512.2,378.67,508.9,365.17z"/>
<path style="fill:#59422D;" d="M467,30.97H346c-24.81,0-45,20.19-45,45v15l15,30h181l15-30v-15C512,51.16,491.81,30.97,467,30.97z"
	/>
<path style="fill:#FEA832;" d="M301,90.97v1v89c0,16.57,13.43,30,30,30h151c16.57,0,30-13.43,30-30v-90H301z"/>
<path style="fill:#664B34;" d="M87.58,332.1c-44.97-8.11-86.35,27.26-87.55,71.87c-0.02,0.66-0.03,1.33-0.03,2
	c0,4.17,0.42,8.44,0.97,10.63c0.38,4.27,1.43,8.75,3.1,13.35c6.86,20.39,22.21,36.87,42.12,45.23c9.28,3.9,19.08,5.85,29,5.85
	c11.97,0,24.13-2.83,35.74-8.45c19.54-9.47,33.4-28.88,37.67-51.61c0.92-4.87,1.4-9.89,1.4-15C150,369.26,123.68,338.19,87.58,332.1
	z"/>
<path style="fill:#FD4E26;" d="M135,90.97l-37.5,2.5c-8.29,0-7.5,4.21-7.5,12.5v60c0,8.29,6.71,15,15,15h75v-45
	C180,111.16,159.81,90.97,135,90.97z"/>
<path style="fill:#E1E4FB;" d="M75,450.97c-24.814,0-45-20.186-45-45s20.186-45,45-45s45,20.186,45,45S99.814,450.97,75,450.97z"/>
<path style="fill:#FD3018;" d="M500.8,403.57c-8.7,11.1-21.6,17.4-35.7,17.4H256v-30h23.1c10.5-12.6,16.8-28.2,16.8-45
	c0-10.002-2.066-18.971-5.66-27.48c-0.829-2.015-2.443-5.232-3.27-6.65c-2.011-3.651-4.395-7.12-6.95-10.3
	c-1.05-1.29-2.14-2.55-3.28-3.77c-0.02-0.02-0.03-0.03-0.05-0.05c-1.139-1.227-2.027-2.028-2.77-2.86c-0.01,0-0.01-0.01-0.01-0.01
	c-1.83-2.48-2.91-5.56-2.91-8.88v-2.4h185.4c0.03,0.02,0.05,0.03,0.08,0.05c0.84,0.51,1.66,1.03,2.48,1.55
	c0.02,0.02,0.05,0.03,0.07,0.05c0.82,0.53,1.63,1.07,2.43,1.62c0.09,0.06,0.18,0.12,0.26,0.18c0.59,0.41,1.18,0.82,1.75,1.24
	c0.29,0.21,0.58,0.42,0.87,0.64c0.65,0.48,1.29,0.97,1.93,1.46c2.77,2.18,5.42,4.53,7.95,7.1c0.37,0.36,0.72,0.729,1.08,1.11
	c15.3,15.9,26.4,38.4,33.6,66.6C512.2,378.67,509.2,392.47,500.8,403.57z"/>
<g>
</g>
<g>
</g>
<g>
</g>
<g>
</g>
<g>
</g>
<g>
</g>
<g>
</g>
<g>
</g>
<g>
</g>
<g>
</g>
<g>
</g>
<g>
</g>
<g>
</g>
<g>
</g>
<g>
</g>
</svg>
