<?xml version="1.0" encoding="iso-8859-1"?>
<!-- Generator: Adobe Illustrator 19.0.0, SVG Export Plug-In . SVG Version: 6.00 Build 0)  -->
<svg version="1.1" id="Capa_1" xmlns="http://www.w3.org/2000/svg" xmlns:xlink="http://www.w3.org/1999/xlink" x="0px" y="0px"
	 viewBox="0 0 511.875 511.875" style="enable-background:new 0 0 511.875 511.875;" xml:space="preserve">
<path style="fill:#3A3847;" d="M256.177,143.964c-2.207,0-4.039-1.788-4.039-3.999c0-2.21,1.75-3.999,3.96-3.999h0.078
	c2.21,0,4.001,1.789,4.001,3.999C260.178,142.176,258.387,143.964,256.177,143.964z"/>
<path style="fill:#5C9EFF;" d="M159.962,403.901c17.675,0,31.992,14.316,31.992,31.992c0,8.318-3.199,15.84-8.318,21.518
	l-0.879-0.804c0,0-14.797-3.117-14.797-4.718v-8.959c2.319-2.718,3.999-6.319,3.999-10.075c0-7.842-5.358-12.958-11.997-12.958
	c-6.639,0-11.997,5.116-11.997,12.958c0,3.756,1.679,7.357,3.999,10.075v8.959c0,1.601-14.797,4.718-14.797,4.718l-0.878,0.804
	c-5.12-5.678-8.318-13.199-8.318-21.518C127.97,418.217,142.286,403.901,159.962,403.901z"/>
<path style="fill:#D7E9FF;" d="M171.959,432.855c0,3.756-1.68,7.357-3.999,10.075c-2.48,2.96-5.601,4.96-7.998,4.96
	c-2.398,0-5.519-2-7.998-4.96c-2.32-2.718-3.999-6.319-3.999-10.075c0-7.842,5.358-12.958,11.997-12.958
	S171.959,425.013,171.959,432.855z"/>
<g>
	<path style="fill:#94C1FF;" d="M167.96,451.889c0,1.601,14.797,4.718,14.797,4.718l0.879,0.804
		c-5.839,6.476-14.317,10.475-23.674,10.475s-17.836-3.999-23.674-10.475l0.878-0.804c0,0,14.797-3.117,14.797-4.718v-8.959
		c2.479,2.96,5.6,4.96,7.998,4.96c2.397,0,5.518-2,7.998-4.96L167.96,451.889L167.96,451.889z"/>
	<path style="fill:#94C1FF;" d="M247.94,442.93c2.48,2.96,5.6,4.96,7.998,4.96c2.398,0,5.521-2,7.998-4.96v8.959
		c0,1.601,14.879,4.718,14.879,4.718l0.797,0.718c-5.756,6.483-14.238,10.561-23.674,10.561c-9.357,0-17.835-3.999-23.674-10.475
		l0.878-0.804c0,0,14.797-3.117,14.797-4.718v-8.959H247.94z"/>
</g>
<path style="fill:#D7E9FF;" d="M247.94,442.93c-2.32-2.718-3.999-6.319-3.999-10.075c0-7.842,5.358-12.958,11.997-12.958
	c6.639,0,11.996,5.116,11.996,12.958c0,3.756-1.678,7.357-3.998,10.075c-2.477,2.96-5.6,4.96-7.998,4.96
	C253.54,447.89,250.42,445.89,247.94,442.93z"/>
<g>
	<path style="fill:#5C9EFF;" d="M247.94,442.93v8.959c0,1.601-14.797,4.718-14.797,4.718l-0.878,0.804
		c-5.12-5.678-8.318-13.199-8.318-21.518c0-17.676,14.316-31.992,31.992-31.992s31.992,14.316,31.992,31.992
		c0,8.24-3.117,15.754-8.318,21.432l-0.797-0.718c0,0-14.879-3.117-14.879-4.718v-8.959c2.32-2.718,3.998-6.319,3.998-10.075
		c0-7.842-5.357-12.958-11.996-12.958c-6.639,0-11.997,5.116-11.997,12.958C243.941,436.611,245.62,440.212,247.94,442.93z"/>
	<path style="fill:#5C9EFF;" d="M351.915,419.897c-6.639,0-11.998,5.116-11.998,12.958c0,3.756,1.68,7.357,4,10.075v8.959
		c0,1.601-14.793,4.718-14.793,4.718l-0.883,0.804c-5.115-5.678-8.318-13.199-8.318-21.518c0-17.676,14.316-31.992,31.992-31.992
		s31.992,14.316,31.992,31.992c0,8.24-3.117,15.754-8.318,21.432l-0.797-0.718c0,0-14.879-3.117-14.879-4.718v-8.959
		c2.32-2.718,3.998-6.319,3.998-10.075C363.911,425.013,358.553,419.897,351.915,419.897z"/>
</g>
<path style="fill:#94C1FF;" d="M329.124,456.607c0,0,14.793-3.117,14.793-4.718v-8.959c2.477,2.96,5.6,4.96,7.998,4.96
	s5.521-2,7.998-4.96v8.959c0,1.601,14.879,4.718,14.879,4.718l0.797,0.718c-5.756,6.483-14.238,10.561-23.674,10.561
	c-9.357,0-17.84-3.999-23.674-10.475L329.124,456.607z"/>
<path style="fill:#D7E9FF;" d="M343.917,442.93c-2.32-2.718-4-6.319-4-10.075c0-7.842,5.359-12.958,11.998-12.958
	s11.996,5.116,11.996,12.958c0,3.756-1.678,7.357-3.998,10.075c-2.477,2.96-5.6,4.96-7.998,4.96S346.393,445.89,343.917,442.93z"/>
<path style="fill:#FFFFFF;" d="M159.962,467.885c9.357,0,17.835-3.999,23.674-10.475c5.12-5.678,8.318-13.199,8.318-21.518
	c0-17.676-14.317-31.992-31.992-31.992c-17.676,0-31.992,14.316-31.992,31.992c0,8.318,3.198,15.84,8.318,21.518
	C142.126,463.886,150.605,467.885,159.962,467.885z M351.915,403.901c-17.676,0-31.992,14.316-31.992,31.992
	c0,8.318,3.203,15.84,8.318,21.518c5.834,6.476,14.316,10.475,23.674,10.475c9.436,0,17.918-4.077,23.674-10.561
	c5.201-5.678,8.318-13.191,8.318-21.432C383.907,418.217,369.59,403.901,351.915,403.901z M255.938,403.901
	c-17.675,0-31.992,14.316-31.992,31.992c0,8.318,3.198,15.84,8.318,21.518c5.838,6.476,14.317,10.475,23.674,10.475
	c9.436,0,17.918-4.077,23.674-10.561c5.201-5.678,8.318-13.191,8.318-21.432C287.93,418.217,273.614,403.901,255.938,403.901z
	 M407.901,387.905v119.971H103.976V387.905v-7.998h303.925L407.901,387.905L407.901,387.905z"/>
<path style="fill:#94C1FF;" d="M87.98,355.913h335.917h31.992v15.996c0,4.397-3.602,7.998-7.998,7.998h-39.99H103.976h-39.99
	c-4.397,0-7.998-3.601-7.998-7.998v-15.996H87.98z"/>
<path style="fill:#D7E9FF;" d="M63.985,371.909v-15.996h-7.998v15.996c0,4.397,3.601,7.998,7.998,7.998h7.998
	C67.586,379.907,63.985,376.306,63.985,371.909z"/>
<g>
	<path style="fill:#5C9EFF;" d="M447.891,355.913v15.996c0,4.397-3.602,7.998-7.998,7.998h7.998c4.396,0,7.998-3.601,7.998-7.998
		v-15.996H447.891z"/>
	<path style="fill:#5C9EFF;" d="M407.901,339.916V147.963H103.976v191.953h63.984h47.988H367.91H407.901z M423.897,139.965v215.947
		H87.98V139.965c0-4.397,3.601-7.998,7.998-7.998h7.998h303.925h7.998C420.295,131.967,423.897,135.568,423.897,139.965z"/>
</g>
<g>
	<path style="fill:#F5F7FA;" d="M383.907,203.95c4.396,0,7.998,3.601,7.998,7.998s-3.602,7.998-7.998,7.998
		c-4.398,0-7.998-3.601-7.998-7.998S379.508,203.95,383.907,203.95z"/>
	<path style="fill:#F5F7FA;" d="M383.907,235.942c4.396,0,7.998,3.601,7.998,7.998s-3.602,7.998-7.998,7.998
		c-4.398,0-7.998-3.601-7.998-7.998S379.508,235.942,383.907,235.942z"/>
	<path style="fill:#F5F7FA;" d="M383.907,267.934c4.396,0,7.998,3.601,7.998,7.998s-3.602,7.998-7.998,7.998
		c-4.398,0-7.998-3.601-7.998-7.998S379.508,267.934,383.907,267.934z"/>
</g>
<path style="fill:#FFFFFF;" d="M139.967,227.944c6.639,0,11.997,5.358,11.997,11.997s-5.358,11.997-11.997,11.997
	s-11.997-5.358-11.997-11.997S133.328,227.944,139.967,227.944z"/>
<polygon style="fill:#D7E9FF;" points="241.461,299.043 215.948,339.916 167.96,339.916 219.947,259.936 "/>
<polygon style="fill:#F5F7FA;" points="295.928,211.948 367.911,339.916 215.948,339.916 241.461,299.043 "/>
<polygon style="fill:#D7E9FF;" points="295.928,211.948 367.911,339.916 215.948,339.916 241.461,299.043 "/>
<g>
	<polygon style="fill:#94C1FF;" points="233.975,285.438 225.465,299.043 199.952,339.916 215.948,339.916 241.461,299.043 	"/>
	<path style="fill:#94C1FF;" d="M127.97,239.941c0,6.639,5.358,11.997,11.997,11.997c6.639,0,11.997-5.358,11.997-11.997
		s-5.358-11.997-11.997-11.997S127.97,233.302,127.97,239.941z M383.907,219.946c4.396,0,7.998-3.601,7.998-7.998
		s-3.602-7.998-7.998-7.998c-4.398,0-7.998,3.601-7.998,7.998S379.508,219.946,383.907,219.946z M383.907,251.938
		c4.396,0,7.998-3.601,7.998-7.998s-3.602-7.998-7.998-7.998c-4.398,0-7.998,3.601-7.998,7.998S379.508,251.938,383.907,251.938z
		 M383.907,283.93c4.396,0,7.998-3.601,7.998-7.998s-3.602-7.998-7.998-7.998c-4.398,0-7.998,3.601-7.998,7.998
		S379.508,283.93,383.907,283.93z M407.901,147.963v191.953h-39.99l-71.983-127.968l-54.467,87.096l-21.514-39.107l-51.987,79.98
		h-63.984V147.963H407.901z"/>
</g>
<g>
	<polygon style="fill:#FFFFFF;" points="407.901,123.969 407.901,131.967 103.976,131.967 103.976,123.969 103.976,35.991 
		255.938,35.991 407.901,35.991 	"/>
	<path style="fill:#FFFFFF;" d="M255.938,11.997c4.396,0,7.998,3.601,7.998,7.998s-3.602,7.998-7.998,7.998
		c-4.397,0-7.998-3.601-7.998-7.998S251.541,11.997,255.938,11.997z"/>
</g>
<g>
	<path style="fill:#94C1FF;" d="M263.936,19.995c0-4.397-3.602-7.998-7.998-7.998V3.999h151.963v31.992H255.938v-7.998
		C260.334,27.993,263.936,24.392,263.936,19.995z"/>
	<path style="fill:#94C1FF;" d="M247.94,19.995c0,4.397,3.601,7.998,7.998,7.998v7.998H103.976V3.999h151.962v7.998
		C251.541,11.997,247.94,15.597,247.94,19.995z"/>
</g>
<rect x="103.978" y="147.967" style="fill:#D7E9FF;" width="9.666" height="191.95"/>
<rect x="398.228" y="147.967" style="fill:#5C9EFF;" width="9.67" height="191.95"/>
<rect x="103.978" y="3.999" style="fill:#D7E9FF;" width="9.666" height="31.992"/>
<rect x="398.228" y="3.999" style="fill:#5C9EFF;" width="9.67" height="31.992"/>
<g>
	<path style="fill:#116FFF;" d="M384.149,23.994c-2.211,0-4.039-1.788-4.039-3.999c0-2.21,1.75-3.999,3.953-3.999h0.086
		c2.203,0,3.998,1.789,3.998,3.999C388.147,22.206,386.352,23.994,384.149,23.994z"/>
	<path style="fill:#116FFF;" d="M368.153,23.994c-2.211,0-4.039-1.788-4.039-3.999c0-2.21,1.75-3.999,3.953-3.999h0.086
		c2.203,0,3.998,1.789,3.998,3.999C372.151,22.206,370.356,23.994,368.153,23.994z"/>
	<path style="fill:#116FFF;" d="M352.157,23.994c-2.211,0-4.039-1.788-4.039-3.999c0-2.21,1.75-3.999,3.953-3.999h0.086
		c2.203,0,3.998,1.789,3.998,3.999C356.155,22.206,354.36,23.994,352.157,23.994z"/>
	<path style="fill:#116FFF;" d="M103.976,127.968c-2.21,0-3.999-1.788-3.999-3.999V3.999c0-2.21,1.789-3.999,3.999-3.999
		s3.999,1.789,3.999,3.999V123.97C107.975,126.18,106.186,127.968,103.976,127.968z"/>
	<path style="fill:#116FFF;" d="M407.901,7.998H103.976c-2.21,0-3.999-1.788-3.999-3.999c0-2.21,1.789-3.999,3.999-3.999h303.925
		c2.211,0,3.998,1.789,3.998,3.999C411.899,6.209,410.112,7.998,407.901,7.998z"/>
	<path style="fill:#116FFF;" d="M407.901,127.968c-2.211,0-4-1.788-4-3.999V3.999c0-2.21,1.789-3.999,4-3.999
		s3.998,1.789,3.998,3.999V123.97C411.899,126.18,410.112,127.968,407.901,127.968z"/>
	<path style="fill:#116FFF;" d="M407.901,511.875c-2.211,0-4-1.789-4-3.999V387.905c0-2.21,1.789-3.999,4-3.999
		s3.998,1.789,3.998,3.999v119.971C411.899,510.085,410.112,511.875,407.901,511.875z"/>
	<path style="fill:#116FFF;" d="M407.901,511.875H103.976c-2.21,0-3.999-1.789-3.999-3.999c0-2.211,1.789-3.999,3.999-3.999h303.925
		c2.211,0,3.998,1.788,3.998,3.999C411.899,510.085,410.112,511.875,407.901,511.875z"/>
	<path style="fill:#116FFF;" d="M103.976,511.875c-2.21,0-3.999-1.789-3.999-3.999V387.905c0-2.21,1.789-3.999,3.999-3.999
		s3.999,1.789,3.999,3.999v119.971C107.975,510.085,106.186,511.875,103.976,511.875z"/>
	<path style="fill:#116FFF;" d="M423.897,359.912c-2.211,0-4-1.789-4-3.999V139.965c0-2.202-1.795-3.999-3.998-3.999H95.978
		c-2.207,0-3.999,1.797-3.999,3.999v215.947c0,2.21-1.789,3.999-3.999,3.999s-3.999-1.789-3.999-3.999V139.965
		c0-6.615,5.381-11.997,11.997-11.997h319.921c6.615,0,11.996,5.382,11.996,11.997v215.947
		C427.895,358.123,426.108,359.912,423.897,359.912z"/>
	<path style="fill:#116FFF;" d="M447.891,383.906H63.985c-6.616,0-11.997-5.382-11.997-11.997v-15.996
		c0-2.21,1.789-3.999,3.999-3.999h399.902c2.211,0,3.998,1.789,3.998,3.999v15.996C459.887,378.524,454.506,383.906,447.891,383.906
		z M59.986,359.912v11.997c0,2.202,1.792,3.999,3.999,3.999h383.906c2.203,0,3.998-1.797,3.998-3.999v-11.997H59.986z"/>
	<path style="fill:#116FFF;" d="M407.901,343.916H103.976c-2.21,0-3.999-1.789-3.999-3.999V147.963c0-2.21,1.789-3.999,3.999-3.999
		h303.925c2.211,0,3.998,1.789,3.998,3.999v191.953C411.899,342.126,410.112,343.916,407.901,343.916z M107.975,335.917h295.926
		V151.962H107.975V335.917z"/>
	<path style="fill:#116FFF;" d="M291.928,367.91h-71.981c-2.211,0-3.999-1.789-3.999-3.999s1.788-3.999,3.999-3.999h71.981
		c2.211,0,4,1.789,4,3.999S294.139,367.91,291.928,367.91z"/>
	<path style="fill:#116FFF;" d="M383.907,223.945c-6.615,0-11.998-5.382-11.998-11.997s5.383-11.997,11.998-11.997
		s11.996,5.382,11.996,11.997S390.522,223.945,383.907,223.945z M383.907,207.949c-2.203,0-4,1.797-4,3.999s1.797,3.999,4,3.999
		s3.998-1.797,3.998-3.999S386.11,207.949,383.907,207.949z"/>
	<path style="fill:#116FFF;" d="M383.907,207.949c-2.211,0-4-1.789-4-3.999v-11.997c0-2.21,1.789-3.999,4-3.999
		s3.998,1.789,3.998,3.999v11.997C387.905,206.16,386.118,207.949,383.907,207.949z"/>
	<path style="fill:#116FFF;" d="M383.907,299.926c-2.211,0-4-1.788-4-3.999V283.93c0-2.21,1.789-3.999,4-3.999
		s3.998,1.789,3.998,3.999v11.997C387.905,298.138,386.118,299.926,383.907,299.926z"/>
	<path style="fill:#116FFF;" d="M383.907,255.937c-6.615,0-11.998-5.382-11.998-11.997s5.383-11.997,11.998-11.997
		s11.996,5.382,11.996,11.997S390.522,255.937,383.907,255.937z M383.907,239.941c-2.203,0-4,1.797-4,3.999s1.797,3.999,4,3.999
		s3.998-1.797,3.998-3.999S386.11,239.941,383.907,239.941z"/>
	<path style="fill:#116FFF;" d="M383.907,239.941c-2.211,0-4-1.789-4-3.999v-15.996c0-2.21,1.789-3.999,4-3.999
		s3.998,1.789,3.998,3.999v15.996C387.905,238.152,386.118,239.941,383.907,239.941z"/>
	<path style="fill:#116FFF;" d="M383.907,287.929c-6.615,0-11.998-5.381-11.998-11.997c0-6.615,5.383-11.997,11.998-11.997
		s11.996,5.382,11.996,11.997C395.903,282.548,390.522,287.929,383.907,287.929z M383.907,271.933c-2.203,0-4,1.797-4,3.999
		s1.797,3.999,4,3.999s3.998-1.797,3.998-3.999S386.11,271.933,383.907,271.933z"/>
	<path style="fill:#116FFF;" d="M383.907,271.933c-2.211,0-4-1.789-4-3.999v-15.996c0-2.21,1.789-3.999,4-3.999
		s3.998,1.789,3.998,3.999v15.996C387.905,270.144,386.118,271.933,383.907,271.933z"/>
	<path style="fill:#116FFF;" d="M367.911,343.916c-1.398,0-2.75-0.734-3.484-2.039l-68.678-122.095l-76.407,122.251
		c-1.176,1.883-3.636,2.461-5.511,1.273c-1.874-1.164-2.444-3.632-1.277-5.506l79.984-127.968c0.75-1.203,2.016-1.859,3.484-1.883
		c1.414,0.031,2.703,0.805,3.391,2.039l71.98,127.969c1.086,1.921,0.398,4.365-1.521,5.443
		C369.254,343.751,368.575,343.916,367.911,343.916z"/>
	<path style="fill:#116FFF;" d="M167.956,343.916c-0.746,0-1.504-0.211-2.176-0.648c-1.851-1.203-2.378-3.679-1.175-5.529
		l51.987-79.98c0.769-1.18,2.027-1.812,3.503-1.82c1.402,0.055,2.679,0.844,3.355,2.07l21.514,39.107
		c1.066,1.937,0.359,4.365-1.573,5.436c-1.938,1.055-4.37,0.359-5.433-1.577l-18.296-33.258l-48.348,74.38
		C170.545,343.275,169.264,343.916,167.956,343.916z"/>
	<path style="fill:#116FFF;" d="M215.948,175.957h-87.979c-2.211,0-3.999-1.788-3.999-3.999c0-2.21,1.788-3.999,3.999-3.999h87.979
		c2.21,0,3.999,1.789,3.999,3.999S218.158,175.957,215.948,175.957z"/>
	<path style="fill:#116FFF;" d="M215.948,191.953h-87.979c-2.211,0-3.999-1.788-3.999-3.999c0-2.21,1.788-3.999,3.999-3.999h87.979
		c2.21,0,3.999,1.789,3.999,3.999C219.947,190.165,218.158,191.953,215.948,191.953z"/>
	<path style="fill:#116FFF;" d="M167.96,207.949h-39.99c-2.211,0-3.999-1.789-3.999-3.999s1.788-3.999,3.999-3.999h39.99
		c2.21,0,3.999,1.789,3.999,3.999S170.17,207.949,167.96,207.949z"/>
	<path style="fill:#116FFF;" d="M139.967,255.937c-8.822,0-15.996-7.178-15.996-15.996s7.174-15.996,15.996-15.996
		s15.996,7.178,15.996,15.996S148.789,255.937,139.967,255.937z M139.967,231.943c-4.409,0-7.998,3.585-7.998,7.998
		s3.589,7.998,7.998,7.998s7.998-3.585,7.998-7.998S144.376,231.943,139.967,231.943z"/>
	<path style="fill:#116FFF;" d="M159.962,451.889c-3.577,0-7.713-2.391-11.064-6.39c-3.171-3.718-4.932-8.217-4.932-12.645
		c0-9.67,6.877-16.957,15.996-16.957s15.996,7.287,15.996,16.957c0,4.428-1.762,8.927-4.956,12.668
		C167.675,449.499,163.539,451.889,159.962,451.889z M159.962,423.896c-4.71,0-7.998,3.687-7.998,8.959
		c0,2.491,1.109,5.217,3.042,7.482c2.234,2.663,4.335,3.554,4.956,3.554c0.621,0,2.722-0.891,4.932-3.53
		c1.957-2.289,3.066-5.015,3.066-7.506C167.96,427.583,164.671,423.896,159.962,423.896z"/>
	<path style="fill:#116FFF;" d="M182.761,460.605c-0.273,0-0.551-0.023-0.828-0.086c-17.105-3.6-17.972-5.623-17.972-8.63
		c0-2.211,1.788-3.999,3.999-3.999c1.222,0,2.315,0.547,3.05,1.414c1.89,0.843,7.76,2.374,12.571,3.389
		c2.159,0.453,3.546,2.578,3.089,4.741C186.271,459.317,184.612,460.605,182.761,460.605z"/>
	<path style="fill:#116FFF;" d="M167.96,455.888c-2.211,0-3.999-1.789-3.999-3.999v-8.959c0-2.21,1.788-3.999,3.999-3.999
		c2.21,0,3.999,1.789,3.999,3.999v8.959C171.959,454.099,170.17,455.888,167.96,455.888z"/>
	<path style="fill:#116FFF;" d="M137.163,460.605c-1.851,0-3.511-1.288-3.909-3.171c-0.457-2.163,0.929-4.288,3.089-4.741
		c4.815-1.015,10.685-2.546,12.571-3.389c0.734-0.867,1.828-1.414,3.05-1.414c2.21,0,3.999,1.788,3.999,3.999
		c0,3.007-0.867,5.03-17.973,8.63C137.713,460.582,137.436,460.605,137.163,460.605z"/>
	<path style="fill:#116FFF;" d="M151.964,455.888c-2.211,0-3.999-1.789-3.999-3.999v-8.959c0-2.21,1.788-3.999,3.999-3.999
		c2.21,0,3.999,1.789,3.999,3.999v8.959C155.963,454.099,154.174,455.888,151.964,455.888z"/>
	<path style="fill:#116FFF;" d="M159.962,471.884c-10.174,0-19.886-4.296-26.646-11.794c-6.026-6.687-9.345-15.278-9.345-24.197
		c0-19.847,16.145-35.991,35.991-35.991s35.991,16.145,35.991,35.991c0,8.919-3.32,17.511-9.346,24.197
		C179.848,467.588,170.135,471.884,159.962,471.884z M159.962,407.9c-15.434,0-27.993,12.56-27.993,27.993
		c0,6.936,2.589,13.629,7.291,18.839c5.245,5.818,12.79,9.154,20.702,9.154s15.457-3.336,20.702-9.154
		c4.702-5.21,7.292-11.903,7.292-18.839C187.955,420.459,175.396,407.9,159.962,407.9z"/>
	<path style="fill:#116FFF;" d="M255.938,451.889c-3.577,0-7.713-2.391-11.064-6.39c-3.171-3.718-4.932-8.217-4.932-12.645
		c0-9.67,6.877-16.957,15.996-16.957c9.123,0,15.996,7.287,15.996,16.957c0,4.428-1.758,8.927-4.959,12.668
		C263.655,449.499,259.52,451.889,255.938,451.889z M255.938,423.896c-4.709,0-7.998,3.687-7.998,8.959
		c0,2.491,1.109,5.217,3.042,7.482c2.233,2.663,4.335,3.554,4.956,3.554c0.622,0,2.723-0.891,4.928-3.522
		c1.961-2.297,3.07-5.022,3.07-7.514C263.936,427.583,260.647,423.896,255.938,423.896z"/>
	<path style="fill:#116FFF;" d="M278.823,460.605c-0.273,0-0.555-0.023-0.828-0.086c-17.184-3.6-18.059-5.623-18.059-8.63
		c0-2.211,1.789-3.999,4-3.999c1.219,0,2.312,0.547,3.047,1.406c1.896,0.851,7.803,2.382,12.652,3.396
		c2.164,0.453,3.547,2.57,3.094,4.733C282.338,459.309,280.674,460.605,278.823,460.605z"/>
	<path style="fill:#116FFF;" d="M263.936,455.888c-2.211,0-4-1.789-4-3.999v-8.959c0-2.21,1.789-3.999,4-3.999
		s3.998,1.789,3.998,3.999v8.959C267.934,454.099,266.147,455.888,263.936,455.888z"/>
	<path style="fill:#116FFF;" d="M233.139,460.605c-1.851,0-3.511-1.288-3.909-3.171c-0.457-2.163,0.93-4.288,3.089-4.741
		c4.815-1.015,10.685-2.546,12.571-3.389c0.734-0.867,1.828-1.414,3.05-1.414c2.21,0,3.999,1.788,3.999,3.999
		c0,3.007-0.867,5.03-17.972,8.63C233.689,460.582,233.412,460.605,233.139,460.605z"/>
	<path style="fill:#116FFF;" d="M247.94,455.888c-2.21,0-3.999-1.789-3.999-3.999v-8.959c0-2.21,1.789-3.999,3.999-3.999
		s3.999,1.789,3.999,3.999v8.959C251.939,454.099,250.15,455.888,247.94,455.888z"/>
	<path style="fill:#116FFF;" d="M255.938,471.884c-10.173,0-19.886-4.296-26.646-11.794c-6.025-6.687-9.345-15.278-9.345-24.197
		c0-19.847,16.144-35.991,35.991-35.991c19.846,0,35.99,16.145,35.99,35.991c0,8.966-3.326,17.542-9.363,24.135
		C275.885,467.549,266.17,471.884,255.938,471.884z M255.938,407.9c-15.434,0-27.993,12.56-27.993,27.993
		c0,6.936,2.589,13.629,7.291,18.839c5.245,5.818,12.79,9.154,20.702,9.154c7.943,0,15.48-3.359,20.682-9.217
		c4.734-5.163,7.311-11.817,7.311-18.776C283.93,420.459,271.372,407.9,255.938,407.9z"/>
	<path style="fill:#116FFF;" d="M351.915,451.889c-3.578,0-7.717-2.391-11.068-6.397c-3.17-3.71-4.928-8.209-4.928-12.637
		c0-9.67,6.873-16.957,15.996-16.957s15.996,7.287,15.996,16.957c0,4.428-1.758,8.927-4.959,12.668
		C359.631,449.499,355.491,451.889,351.915,451.889z M351.915,423.896c-4.711,0-7.998,3.687-7.998,8.959
		c0,2.491,1.109,5.217,3.039,7.482c2.232,2.663,4.342,3.554,4.959,3.554s2.727-0.891,4.928-3.522c1.961-2.297,3.07-5.022,3.07-7.514
		C359.913,427.583,356.624,423.896,351.915,423.896z"/>
	<path style="fill:#116FFF;" d="M374.799,460.605c-0.273,0-0.555-0.023-0.828-0.086c-17.184-3.6-18.059-5.623-18.059-8.63
		c0-2.211,1.789-3.999,4-3.999c1.219,0,2.312,0.547,3.047,1.406c1.896,0.851,7.803,2.382,12.652,3.396
		c2.164,0.453,3.545,2.57,3.094,4.733C378.315,459.309,376.651,460.605,374.799,460.605z"/>
	<path style="fill:#116FFF;" d="M359.913,455.888c-2.211,0-4-1.789-4-3.999v-8.959c0-2.21,1.789-3.999,4-3.999
		s3.998,1.789,3.998,3.999v8.959C363.911,454.099,362.124,455.888,359.913,455.888z"/>
	<path style="fill:#116FFF;" d="M329.116,460.605c-1.844,0-3.508-1.288-3.906-3.171c-0.453-2.163,0.93-4.288,3.086-4.741
		c4.818-1.015,10.686-2.546,12.574-3.389c0.734-0.867,1.828-1.414,3.047-1.414c2.211,0,3.998,1.788,3.998,3.999
		c0,3.007-0.865,5.03-17.963,8.63C329.67,460.574,329.389,460.605,329.116,460.605z"/>
	<path style="fill:#116FFF;" d="M343.917,455.888c-2.211,0-4-1.789-4-3.999v-8.959c0-2.21,1.789-3.999,4-3.999
		s3.998,1.789,3.998,3.999v8.959C347.915,454.099,346.127,455.888,343.917,455.888z"/>
	<path style="fill:#116FFF;" d="M351.915,471.884c-10.178,0-19.895-4.296-26.643-11.794c-6.029-6.694-9.35-15.286-9.35-24.197
		c0-19.847,16.145-35.991,35.992-35.991c19.846,0,35.99,16.145,35.99,35.991c0,8.966-3.326,17.542-9.363,24.135
		C371.862,467.549,362.147,471.884,351.915,471.884z M351.915,407.9c-15.434,0-27.994,12.56-27.994,27.993
		c0,6.936,2.586,13.621,7.289,18.839c5.24,5.818,12.785,9.154,20.705,9.154c7.943,0,15.48-3.359,20.682-9.217
		c4.734-5.163,7.311-11.817,7.311-18.776C379.907,420.459,367.348,407.9,351.915,407.9z"/>
	<path style="fill:#116FFF;" d="M407.901,39.99H103.976c-2.21,0-3.999-1.788-3.999-3.999c0-2.21,1.789-3.999,3.999-3.999h303.925
		c2.211,0,3.998,1.789,3.998,3.999C411.899,38.202,410.112,39.99,407.901,39.99z"/>
	<path style="fill:#116FFF;" d="M255.938,31.992c-6.616,0-11.997-5.381-11.997-11.997c0-6.615,5.381-11.997,11.997-11.997
		c6.615,0,11.996,5.382,11.996,11.997C267.934,26.611,262.553,31.992,255.938,31.992z M255.938,15.996
		c-2.207,0-3.999,1.797-3.999,3.999c0,2.203,1.792,3.999,3.999,3.999c2.207,0,3.998-1.796,3.998-3.999
		S258.145,15.996,255.938,15.996z"/>
	<path style="fill:#116FFF;" d="M151.964,23.994H127.97c-2.211,0-3.999-1.788-3.999-3.999c0-2.21,1.788-3.999,3.999-3.999h23.994
		c2.21,0,3.999,1.789,3.999,3.999C155.963,22.206,154.174,23.994,151.964,23.994z"/>
	<path style="fill:#116FFF;" d="M191.954,23.994H167.96c-2.211,0-3.999-1.788-3.999-3.999c0-2.21,1.788-3.999,3.999-3.999h23.994
		c2.21,0,3.999,1.789,3.999,3.999C195.953,22.206,194.164,23.994,191.954,23.994z"/>
	<path style="fill:#116FFF;" d="M367.911,71.982H143.966c-2.211,0-3.999-1.788-3.999-3.999c0-2.21,1.788-3.999,3.999-3.999h223.945
		c2.211,0,3.998,1.789,3.998,3.999C371.909,70.194,370.122,71.982,367.911,71.982z"/>
	<path style="fill:#116FFF;" d="M335.918,87.978h-159.96c-2.211,0-3.999-1.788-3.999-3.999c0-2.21,1.788-3.999,3.999-3.999h159.96
		c2.211,0,3.998,1.789,3.998,3.999C339.917,86.19,338.129,87.978,335.918,87.978z"/>
	<path style="fill:#116FFF;" d="M295.928,103.974h-79.98c-2.211,0-3.999-1.788-3.999-3.999c0-2.21,1.788-3.999,3.999-3.999h79.98
		c2.211,0,3.998,1.789,3.998,3.999C299.926,102.186,298.139,103.974,295.928,103.974z"/>
	<path style="fill:#116FFF;" d="M175.958,487.88h-31.992c-2.211,0-3.999-1.789-3.999-3.999c0-2.211,1.788-3.999,3.999-3.999h31.992
		c2.21,0,3.999,1.788,3.999,3.999C179.957,486.091,178.168,487.88,175.958,487.88z"/>
	<path style="fill:#116FFF;" d="M271.934,487.88h-31.992c-2.21,0-3.999-1.789-3.999-3.999c0-2.211,1.789-3.999,3.999-3.999h31.992
		c2.211,0,3.998,1.788,3.998,3.999C275.932,486.091,274.145,487.88,271.934,487.88z"/>
	<path style="fill:#116FFF;" d="M367.911,487.88h-31.993c-2.211,0-4-1.789-4-3.999c0-2.211,1.789-3.999,4-3.999h31.992
		c2.211,0,3.998,1.788,3.998,3.999C371.909,486.091,370.122,487.88,367.911,487.88z"/>
</g>
<g>
</g>
<g>
</g>
<g>
</g>
<g>
</g>
<g>
</g>
<g>
</g>
<g>
</g>
<g>
</g>
<g>
</g>
<g>
</g>
<g>
</g>
<g>
</g>
<g>
</g>
<g>
</g>
<g>
</g>
</svg>
