<svg version="1.1" id="logo" class="logo" xmlns="http://www.w3.org/2000/svg" x="0px" y="0px" viewBox="0 0 137.5 144" style="enable-background:new 0 0 137.5 144;" xml:space="preserve">
<g id="circle1" class="circle no-hover">
<path d="M74.8,63.7c-4.3,0-7.7,3.5-7.7,7.7c0,4.3,3.5,7.7,7.7,7.7s7.7-3.5,7.7-7.7C82.5,67.1,79,63.7,74.8,63.7z M74.8,74.3
	c-1.6,0-2.9-1.3-2.9-2.9s1.3-2.9,2.9-2.9s2.9,1.3,2.9,2.9S76.4,74.3,74.8,74.3z"></path>
</g>
<g id="circle2" class="circle no-hover">
	<path d="M72.4,82.1c-5-1.1-8.6-5.6-8.6-10.7s3.6-9.6,8.6-10.7l0.4-0.1v-5.8l-0.6,0.1c-8.1,1.3-14,8.2-14,16.5
		c0,8.2,6.1,15.3,14.2,16.5L73,88v-5.8L72.4,82.1z"></path>
	<g>
		<path class="connector t" d="M87,68.5h-2.2H82h-1.3c-0.1,0.9-0.2,2.1-0.2,3l0.3,2.8h6.3L87,68.5z"></path>
		<path d="M89.1,62.8L89,62.6c-1.4-2.3-3.4-4.2-5.6-5.6l-0.7-0.4l0,0c-1.1-0.6-2.3-1.1-3.6-1.4l-0.3-0.1c-0.4-0.1-0.7-0.2-1.1-0.2
			l-0.9-0.1v5.8l0.4,0.1c5,1.1,8.6,5.6,8.6,10.7s-3.6,9.6-8.6,10.7l-0.4,0.1V88l0.9-0.1c0.3-0.1,0.7-0.1,1-0.2l0.3-0.1
			c7.3-1.9,12.5-8.6,12.5-16.1C91.5,68.4,90.7,65.4,89.1,62.8z"></path>
	</g>
</g>
<g id="circle3" class="circle">
	<path class="connector e2" d="M58.5,68.5h-4.4h-1c-0.1,0.7-0.2,2-0.2,3l0.3,2.8h6.3v-5.8H58.5z"></path>
	<path class="connector e2" d="M73,90.3v-3.4L67,85v6.3h0.5l-0.1,0.3c1.5,0.5,3.2,1.1,5.1,1.3H73V90.3L73,90.3z"></path>
	<path class="connector e2" d="M89.1,55.5v-0.4L88.9,55c-1.8-1.6-3.7-2.8-5.6-3.6L82.6,51v6.9l0.2,0.1c2.2,1.3,4,3.1,5.3,5.2l0.3-0.2h0.7L89.1,55.5v-0.4"></path>
	<path d="M88.9,49c-1.7-1.1-3.6-2-5.6-2.7s-4.1-1.1-6.2-1.3h-0.3c-0.7-0.1-1.3-0.1-2-0.1h-0.4c-0.5,0-1.1,0-1.7,0.1l0,0l-0.5,0.1
		c-1.6,0.2-3.3,0.5-4.8,0.9l0,0c-1.1,0.3-2.2,0.7-3.2,1.2c-0.5,0.2-1,0.5-1.5,0.7L62.6,48c-0.5,0.3-1,0.5-1.4,0.8
		c-1.4,0.8-2.7,1.8-4,2.9c-4.9,4.4-8,10.4-8.7,16.8L48.4,69c-0.1,0.9-0.1,1.7-0.1,2.5s0,1.6,0.1,2.4l0.1,0.5l0,0
		c1.1,10.5,8.6,19.5,18.8,22.5c1.7,0.5,3.4,0.8,5.1,1l0.6,0v-5v-0.8l-0.5,0c-1.6-0.2-3.3-0.6-4.9-1.2l-0.3-0.1l0,0L67,90.5
		c-0.2-0.1-0.4-0.2-0.7-0.3L65.9,90C58.7,86.7,54,79.3,54,71.4c0-9.9,7.1-18.5,17-20.3c0.7-0.1,1.2-0.2,1.8-0.3
		c0.7-0.1,1.4-0.1,2.1-0.1c2.7,0,5.3,0.5,7.8,1.5l0.3,0.2c1.9,0.8,3.7,2,5.3,3.4l0.8,0.7v-7.4L88.9,49z"></path>
</g>
<g id="circle4" class="circle">
	<path class="connector f2" d="M72.8,39.5l-0.4-0.1h-0.2c-1.6,0.1-3.2,0.4-4.8,0.7L67,40.2v6.4h1v-0.1l3.7-0.7c0,0.2,0.1,0.2,0.1,0.3l0.3-0.4l0,0l0,0
		l0.7,0V43V39.5z"></path>
	<path class="connector f2" d="M49.4,71.4c0-0.8,0-1.6,0.1-2.4l0.1-0.5h-6.4V69v0.5v4.2v0.5l6.4,0.1v-0.5C49.4,73,49.4,72.2,49.4,71.4z"></path>
	<path d="M71.9,34.7c-1.4,0.1-2.8,0.3-4.2,0.6l-0.6,0.1c-4.7,1-9.2,2.9-13.1,5.6l0,0l-0.3,0.2c-1.3,0.9-2.6,2-3.8,3l-0.4,0.4l0,0
		C42.7,51.1,38.6,59.7,38,69c0,0.9,0,1.7,0,2.4c0,0.7,0,1.5,0.1,2.4c0.6,9.8,5.1,18.7,12.5,25.2l0.8,0.7v-7.9v-0.2l-0.1-0.1
		c-4.8-5.6-7.5-12.8-7.5-20.2c0-13.3,8.5-25.1,21.1-29.4l0.2-0.1c0.3-0.1,0.7-0.2,1-0.3l0.4-0.1c0.3-0.1,0.6-0.2,0.9-0.2l0.3-0.1
		c1.5-0.3,3-0.6,4.6-0.7l0.5-0.1v-5.7L71.9,34.7z"></path>
	<path class="no-hover" d="M57.4,97.1L57.4,97.1L57,96.8c-0.3-0.2-0.6-0.4-0.9-0.6l-0.8-0.6v7l0.2,0.1c5,3.1,10.7,4.9,16.5,5.3h0.2
		c0.9,0.1,1.7,0.1,2.5,0.1c1.3,0,2.5-0.1,3.7-0.2c0.3,0,0.6-0.1,0.8-0.1l0.5-0.1c0.1,0,0.3,0,0.4-0.1c17.8-2.7,31.2-18.4,31.2-36.4
		c0-7.9-2.5-15.5-7.2-21.8l-0.3-0.4c-0.5-0.6-1-1.2-1.5-1.9l-0.2-0.2c-0.1-0.1-0.2-0.3-0.3-0.4c-0.2-0.3-0.5-0.5-0.7-0.7l-0.1-0.1
		c-0.3-0.3-0.6-0.6-0.9-0.9l-0.2-0.2c-0.2-0.2-0.4-0.4-0.6-0.5c-0.5-0.5-1-0.9-1.6-1.3c-0.2-0.1-0.3-0.3-0.5-0.4l-0.1-0.1
		c-0.5-0.4-0.9-0.7-1.4-1l-0.2-0.1c-0.1-0.1-0.2-0.1-0.3-0.2c-0.6-0.4-1.3-0.8-1.9-1.2c-0.2-0.1-0.3-0.2-0.5-0.3
		c-0.6-0.4-1.2-0.7-1.9-1l-0.3-0.1c-0.7-0.3-1.4-0.7-2.2-1l-0.9-0.3l0,0c-1.2-0.5-2.5-0.9-3.8-1.2h-0.2h-0.1h-0.1
		c-0.1,0-0.3-0.1-0.4-0.1l-0.4-0.1l0,0l0,0c-0.2,0-0.4-0.1-0.5-0.1c-0.6-0.1-1.1-0.2-1.7-0.3h-0.2c-0.5-0.1-1-0.1-1.6-0.2h-0.3
		c-0.3,0-0.6,0-1-0.1h-0.5v5.8h0.5c16,1.3,28.6,14.9,28.6,30.9c0,17.1-13.9,31-31,31C68.6,102.4,62.6,100.6,57.4,97.1"></path>
</g>
<g id="circle5" class="circle">
	<path class="connector f1" d="M48.9,36l-4.5,3.7l5.8,5.8l0.4-0.3c1.3-1.2,2.5-2.2,3.6-3l0.5-0.3L48.9,36z"></path>
	<path class="connector f1" d="M83,36.6l0.4,0.1c1.6,0.4,3.1,0.9,4.6,1.5l0.7,0.3v-8.2l-0.5,0l0,0l0,0l0,0l0.2-0.5h-0.1c-1.5-0.5-3-1-4.6-1.3L83,28.3v7.3
		V36.6z"></path>
	<path class="no-hover" d="M93.6,26.6l-0.2-0.1l-0.7-0.2v6.3l0.3,0.1c14.9,7.1,24.5,22.2,24.5,38.6c0,20.9-15.6,39.1-36.3,42.2
		c-0.2,0-0.4,0.1-0.6,0.1l-0.8,0.1c-0.2,0-0.5,0.1-0.7,0.1c-1.5,0.1-3,0.2-4.4,0.2c-0.8,0-1.7,0-2.9-0.1c-2.8-0.2-5.5-0.6-8.2-1.4
		l-0.6-0.2v5.9l0.4,0.1c3.7,0.9,7.5,1.3,11.3,1.3c26.7,0,48.5-21.8,48.5-48.5c0-16.1-7.9-31.1-21.3-40.1l-0.2-0.1
		c-1.2-0.8-2.5-1.6-3.8-2.3l-0.3-0.2c-0.5-0.3-1-0.5-1.7-0.8l-0.4-0.2c-0.5-0.3-1.1-0.5-1.6-0.7L93.6,26.6"></path>
	<path d="M88.7,24.9L88,24.7l0,0c-0.8-0.2-1.7-0.4-2.5-0.6L85,24c-0.4-0.1-0.8-0.2-1.2-0.2c-0.3-0.1-0.6-0.1-1-0.2
		c-0.3-0.1-0.7-0.1-1-0.2c-0.6-0.1-1.2-0.2-1.9-0.2l-0.8-0.1c-0.5,0-0.9-0.1-1.4-0.1c-0.3,0-0.6,0-0.9,0c-0.5,0-1.1,0-1.6,0h-0.4
		c-1,0-2.1,0-3.1,0.1h-0.1c-2.8,0.2-5.6,0.6-8.4,1.3h0.1l-0.8,0.2c-1.6,0.4-3.2,0.9-4.7,1.5l-0.3,0.2l0,0
		c-17.8,6.8-30,23.4-31.1,42.4L26.3,69c0,0.8-0.1,1.6-0.1,2.4s0,1.6,0.1,2.4v0.5l0,0c0.8,13,6.8,25.2,16.7,33.8l0.2,0.1
		c0.4,0.3,0.8,0.7,1.2,1l0.4,0.3c0.5,0.4,1.1,0.8,1.6,1.2l0.3,0.2c0.2,0.2,0.5,0.4,0.7,0.5s0.4,0.3,0.7,0.4c0.4,0.3,0.8,0.5,1.2,0.8
		l0.5,0.3c2.7,1.6,5.6,3,8.5,4l0.7,0.2V111l-0.3-0.1C42.5,104.4,32,88.9,32,71.4c0-18.3,11.7-34.6,29-40.5l0.2-0.1
		c0.5-0.2,0.9-0.3,1.4-0.4l0.7-0.2c0.3-0.1,0.7-0.2,1-0.3c0.6-0.1,1.2-0.3,1.8-0.4h0.2c0.6-0.1,1.2-0.2,1.8-0.3h0.3
		c0.6-0.1,1.2-0.2,1.9-0.2h0.1c1.5-0.2,2.9-0.2,4.4-0.2c2.8,0,5.5,0.3,8.2,0.8l0.4,0.1c1.5,0.3,3,0.7,4.6,1.2l0.7,0.2l0,0l0,0v-5.7
		C88.7,25.4,88.7,24.9,88.7,24.9z M71.6,23.5L71.6,23.5L71.6,23.5L71.6,23.5z"></path>
</g>
<g id="circle6" class="circle">
	<path class="connector e1" d="M27.4,73.7c0-0.8-0.1-1.6-0.1-2.4s0-1.6,0.1-2.3v-0.5h-8.3V69c0,0.3,0,0.6,0,0.8c0,0.5-0.1,1.1-0.1,1.6s0,1,0.1,1.5
		c0,0.3,0,0.6,0,0.9l0.1,0.5l0,0h8.2L27.4,73.7z"></path>
	<polygon class="connector e1" points="80.5,118.8 80.5,127 86.2,130.8 86.2,117.9 	"></polygon>
	<polygon class="connector e1" points="63,25.3 63,12 57.3,18.3 57.3,27.1 	"></polygon>
	<path d="M86,125.1c-3.7,0.8-7.4,1.1-11.2,1.1c-22.5,0-42.4-13.5-50.8-34.3l-0.1-0.2c-0.3-0.7-0.5-1.4-0.8-2.1L22.9,89
		c-0.2-0.6-0.4-1.2-0.6-1.7c-0.1-0.3-0.2-0.6-0.2-0.9L22,86.1c-0.1-0.4-0.2-0.9-0.4-1.3c-0.1-0.5-0.3-1.1-0.4-1.6l-0.1-0.3
		c0-0.2-0.1-0.4-0.1-0.6c-0.1-0.7-0.3-1.5-0.4-2.2l-0.1-0.4c-0.3-1.8-0.5-3.7-0.6-5.4l0,0v-0.5c0-0.8-0.1-1.5-0.1-2.3s0-1.6,0.1-2.4
		v-0.5c0.5-9.9,3.7-19.5,9.3-27.7l0.1-0.1c0.4-0.6,0.9-1.2,1.4-1.9l0.2-0.3c0.4-0.6,0.9-1.2,1.4-1.7l0.2-0.2
		c0.5-0.6,1.1-1.3,1.6-1.9l0.3-0.3c0.4-0.5,0.9-0.9,1.3-1.4c0.2-0.2,0.3-0.3,0.5-0.5l0.1-0.1c0.4-0.4,0.8-0.7,1.1-1.1l0.1-0.1
		c0.2-0.2,0.4-0.3,0.5-0.5c0.4-0.4,0.9-0.8,1.3-1.1l0.6-0.5c0.5-0.4,1.1-0.9,1.6-1.3c0.2-0.2,0.4-0.3,0.6-0.5l0.2-0.1
		c0.4-0.3,0.7-0.5,1.1-0.8c0.3-0.2,0.6-0.4,0.9-0.6c0.4-0.2,0.8-0.5,1.1-0.7l0.2-0.1c0.2-0.1,0.4-0.3,0.7-0.4
		c0.6-0.4,1.3-0.7,1.9-1.1c0.2-0.1,0.3-0.2,0.5-0.3l0.3-0.2c0.4-0.2,0.9-0.5,1.3-0.7c0.3-0.1,0.6-0.3,1-0.5s0.8-0.4,1.3-0.6
		c0.3-0.1,0.6-0.3,0.9-0.4c0.5-0.2,1-0.4,1.5-0.6l0.3-0.1c0.1-0.1,0.3-0.1,0.4-0.2c0.5-0.2,0.9-0.3,1.4-0.5l0,0l0.7-0.2
		c1.5-0.5,3-0.9,4.6-1.3l0.6-0.1v-6l-0.9,0.2c-28,5.8-48.3,30.7-48.3,59.3c0,33.4,27.2,60.6,60.6,60.6c3.8,0,7.6-0.4,11.4-1.1
		l0.4-0.1V125L86,125.1z"></path>
</g>
</svg>