<svg xmlns="http://www.w3.org/2000/svg" xmlns:xlink="http://www.w3.org/1999/xlink" width="32" height="32" version="1.1" viewBox="0 0 32 32"><title>color/neu</title><desc>Created with Sketch.</desc><g id="color/neu" fill="none" fill-rule="evenodd" stroke="none" stroke-width="1"><g id="Group" fill="#B3BA00" fill-rule="nonzero"><circle id="Oval" cx="16" cy="16" r="16"/></g><g id="Neumark-(NEU)" fill="#FFF" fill-rule="nonzero" transform="translate(4.000000, 4.000000)"><polygon id="Shape" points="9.129 6.664 9 6.743 15 16 15 6.735 12.004 5"/><polygon id="Shape" points="9 17.165 12.136 19 15 17.328 9 8"/><polygon id="Shape" points="6 8.356 6 15.644 8 17 8 7"/><polygon id="Shape" points="16 17 18 15.613 18 8.387 16 7"/><path id="Shape" d="M12,0 C5.37534247,0 0,5.37534247 0,12 C0,18.6246575 5.37534247,24 12,24 C18.6246575,24 24,18.6246575 24,12 C24,5.37534247 18.6246575,0 12,0 Z M11.9506849,19.6191781 L5.4739726,15.7808219 L5.4739726,8.11232877 L11.9506849,4.28219178 L18.4273973,8.11232877 L18.4273973,15.7808219 L11.9506849,19.6191781 Z"/></g></g></svg>