<?xml version="1.0" encoding="UTF-8"?>
<svg width="100px" height="87px" viewBox="0 0 100 87" version="1.1" xmlns="http://www.w3.org/2000/svg" xmlns:xlink="http://www.w3.org/1999/xlink">
    <!-- Generator: Sketch 48.2 (47327) - http://www.bohemiancoding.com/sketch -->
    <title>logo-nexo-symbol</title>
    <desc>Created with Sketch.</desc>
    <defs></defs>
    <g id="Page-1" stroke="none" stroke-width="1" fill="none" fill-rule="evenodd">
        <g id="logo-nexo-symbol" transform="translate(0.500000, 0.066388)" fill-rule="nonzero">
            <path d="M25.8028678,0.558330987 L74.5770676,28.7141651 L74.5770676,57.4283301 L0,14.3570825 L23.9284709,0.558330987 C24.5207504,0.216378217 25.250469,0.216378217 25.8427485,0.558330987" id="Shape" fill="#3CA9E5"></path>
            <polygon id="Shape" fill="#2853C3" points="74.5770676 0 49.7313386 14.3570825 74.5770676 28.7141651"></polygon>
            <path d="M74.5770676,0 L98.5055384,13.7987515 C99.1031664,14.1437554 99.4688543,14.7837092 99.4626773,15.4737445 L99.4627543,71.7854126 L74.5770676,57.4283301 L74.5770676,0 Z" id="Shape" fill="#1A4199"></path>
            <path d="M99.4626773,71.7854126 L75.5342064,85.5841642 C74.9398034,85.9180983 74.2143317,85.9180983 73.6199287,85.5841642 L24.8457289,57.4283301 L24.8457289,28.6742843 L99.4626773,71.7854126 Z" id="Shape" fill="#2853C3"></path>
            <path d="M-7.70365876e-05,14.3570825 L-3.71172937e-10,70.6687507 C-0.0061770752,71.3587859 0.359510836,71.9987398 0.957138835,72.3437436 L24.8856097,86.1424952 L24.8856097,28.6742843 L-7.70365876e-05,14.3570825 Z" id="Shape" fill="#60BEFF"></path>
            <polygon id="Shape" fill="#3CA9E5" points="24.8856097 86.1424952 49.7313386 71.7854126 24.8856097 57.4283301"></polygon>
        </g>
    </g>
</svg>